<svg width="48" height="47" viewBox="0 0 48 47" fill="none" xmlns="http://www.w3.org/2000/svg">
<path d="M14.6827 38.8656C12.5677 38.8656 10.8499 40.5479 10.8499 42.6152C10.8499 44.6842 12.5696 46.3647 14.6827 46.3647C16.7976 46.3647 18.5154 44.6824 18.5154 42.6152C18.5154 40.5462 16.7958 38.8656 14.6827 38.8656ZM14.6827 44.4909C13.6261 44.4909 12.7654 43.6506 12.7654 42.6152C12.7654 41.5798 13.6261 40.7395 14.6827 40.7395C15.7393 40.7395 16.6 41.5798 16.6 42.6152C16.6 43.6506 15.7393 44.4909 14.6827 44.4909ZM33.8501 38.8656C31.7351 38.8656 30.0173 40.5479 30.0173 42.6152C30.0173 44.6842 31.7369 46.3647 33.8501 46.3647C35.965 46.3647 37.6828 44.6824 37.6828 42.6152C37.6828 40.5462 35.9632 38.8656 33.8501 38.8656ZM33.8501 44.4909C32.7935 44.4909 31.9328 43.6506 31.9328 42.6152C31.9328 41.5798 32.7935 40.7395 33.8501 40.7395C34.9066 40.7395 35.7674 41.5798 35.7674 42.6152C35.7674 43.6506 34.9066 44.4909 33.8501 44.4909ZM36.7233 1.36475C30.9102 1.36475 26.1809 5.99318 26.1809 11.6783C26.1809 17.3633 30.9084 21.9918 36.7233 21.9918C42.5363 21.9918 47.2656 17.3633 47.2656 11.6783C47.2656 5.99318 42.5382 1.36475 36.7233 1.36475ZM36.7233 20.1161C31.9687 20.1161 28.0982 16.3296 28.0982 11.6783C28.0982 7.02687 31.9687 3.24042 36.7233 3.24042C41.4779 3.24042 45.3483 7.02692 45.3483 11.6783C45.3483 16.3296 41.4778 20.1161 36.7233 20.1161ZM37.6836 11.2901C37.6827 11.29 37.6822 11.2911 37.6829 11.2917L40.543 14.0897C40.9228 14.4614 40.9228 15.0726 40.543 15.4443C40.1747 15.8045 39.5861 15.8045 39.2179 15.4443L36.3687 12.657C35.9841 12.2807 35.7674 11.7654 35.7674 11.2273V7.0119C35.7674 6.48246 36.1966 6.05326 36.726 6.05326C37.2554 6.05326 37.6846 6.48246 37.6846 7.0119V11.2891C37.6846 11.2896 37.6842 11.2901 37.6836 11.2901ZM41.9768 24.7573C41.9765 24.7575 41.9768 24.758 41.9772 24.7579C42.9657 24.4574 43.4987 24.3435 43.7607 24.3003C43.8738 24.2816 43.9596 24.3784 43.9377 24.4909L43.2788 27.8749C43.0959 28.8145 42.2728 29.4927 41.3156 29.4927L15.1039 29.4911C13.8874 29.4911 12.9526 30.568 13.1236 31.7724L13.2543 32.6921C13.4519 34.0738 14.6756 35.1162 16.1023 35.1162H38.6605C39.1785 35.1162 39.5983 35.5361 39.5983 36.0541C39.5983 36.572 39.1785 36.9919 38.6605 36.9919H16.1023C13.725 36.9919 11.6838 35.2533 11.3569 32.9505L7.48463 5.66458C7.28697 4.28289 6.06332 3.24046 4.63657 3.24046H2.20346C1.68551 3.24046 1.26562 2.82058 1.26562 2.30263C1.26562 1.78467 1.68551 1.36479 2.20346 1.36479H4.63657C7.01386 1.36479 9.05513 3.10334 9.38196 5.40618L9.62873 7.14647C9.76857 8.1327 10.6128 8.86569 11.6089 8.86569H21.5649C22.1187 8.86569 22.5347 9.36976 22.4714 9.91993C22.4187 10.3779 22.0399 10.7413 21.5789 10.7412L12.4447 10.7399C11.2282 10.7398 10.2933 11.8166 10.4642 13.021L12.2917 25.8963C12.4317 26.8824 13.2759 27.6153 14.2719 27.6153H40.5856C41.0558 27.6153 41.4611 27.2844 41.5552 26.8238L41.9773 24.7577C41.9774 24.7574 41.9771 24.7572 41.9768 24.7573Z" fill="white" stroke="white"/>
</svg>
