<svg width="31" height="48" viewBox="0 0 31 48" fill="none" xmlns="http://www.w3.org/2000/svg">
<path d="M29.3446 7.23072H21.5013V1.94228C21.5013 1.55981 21.3361 1.19277 21.0419 0.922389C20.7478 0.652005 20.3486 0.5 19.9327 0.5H2.15457C1.73859 0.5 1.3394 0.651956 1.04533 0.922389C0.751259 1.19282 0.585938 1.55986 0.585938 1.94228V12.5192C0.585938 12.9016 0.751205 13.2687 1.04533 13.5391C1.33946 13.8094 1.73865 13.9614 2.15457 13.9614H3.20034V18.2884C3.20151 18.4824 3.32919 18.6569 3.52458 18.7307C3.58667 18.7575 3.6546 18.7708 3.72323 18.7691C3.86212 18.7698 3.99587 18.7198 4.09438 18.6296L9.15072 13.9614H9.99785V19.2499C9.99785 19.6324 10.1631 19.9994 10.4572 20.2698C10.7514 20.5402 11.1506 20.6922 11.5665 20.6922H21.8204L26.8819 25.3603H26.8821C26.9807 25.4505 27.1144 25.5005 27.2533 25.4999C27.3219 25.5016 27.3899 25.4883 27.4519 25.4614C27.6473 25.3876 27.775 25.2131 27.7762 25.0191V20.6922H29.3448C29.7608 20.6922 30.16 20.5402 30.4541 20.2698C30.7482 19.9993 30.9135 19.6323 30.9135 19.2499V8.673C30.9135 8.29053 30.7482 7.9235 30.4541 7.65311C30.16 7.38273 29.7608 7.23072 29.3448 7.23072H29.3446ZM9.02018 12.9999C8.86098 12.9806 8.70038 13.0261 8.5811 13.1249H8.54982L4.24625 17.1249V13.4807C4.24625 13.3532 4.19116 13.2309 4.09312 13.1408C3.99508 13.0506 3.86202 13 3.72337 13H2.15471C1.86595 13 1.63182 12.7847 1.63182 12.5192V1.9423C1.63182 1.6768 1.86595 1.46153 2.15471 1.46153H19.9328C20.0715 1.46153 20.2046 1.51218 20.3026 1.60233C20.4006 1.69247 20.4557 1.81481 20.4557 1.9423V12.5192C20.4557 12.6467 20.4006 12.769 20.3026 12.8592C20.2046 12.9493 20.0715 13 19.9328 13L9.02018 12.9999ZM29.8675 19.2499C29.8675 19.3774 29.8124 19.4998 29.7144 19.5899C29.6163 19.68 29.4833 19.7307 29.3446 19.7307H27.2531C26.9643 19.7307 26.7302 19.946 26.7302 20.2115V23.8556L22.3902 19.8556L22.359 19.8268C22.2247 19.7214 22.042 19.6852 21.8725 19.7307H11.5665C11.2778 19.7307 11.0437 19.5154 11.0437 19.2499V13.9615H19.9327C20.3487 13.9615 20.7479 13.8095 21.042 13.5391C21.336 13.2686 21.5014 12.9016 21.5014 12.5192V8.19226H29.3447C29.4833 8.19226 29.6164 8.24292 29.7144 8.33306C29.8124 8.4232 29.8675 8.54554 29.8675 8.67303L29.8675 19.2499Z" fill="white"/>
<path d="M16.4514 3.09619H3.95147C3.68598 3.09619 3.4707 3.29413 3.4707 3.53823C3.4707 3.78234 3.68598 3.98028 3.95147 3.98028H16.4514C16.7169 3.98028 16.9322 3.78234 16.9322 3.53823C16.9322 3.29413 16.7169 3.09619 16.4514 3.09619Z" fill="white"/>
<path d="M15.0091 5.74805H3.95147C3.68598 5.74805 3.4707 5.94598 3.4707 6.19009C3.4707 6.4342 3.68598 6.63213 3.95147 6.63213H15.0091C15.2746 6.63213 15.4899 6.4342 15.4899 6.19009C15.4899 5.94598 15.2746 5.74805 15.0091 5.74805Z" fill="white"/>
<path d="M13.5668 8.40088H3.95147C3.68598 8.40088 3.4707 8.59881 3.4707 8.84292C3.4707 9.08703 3.68598 9.28496 3.95147 9.28496H13.5668C13.8323 9.28496 14.0476 9.08703 14.0476 8.84292C14.0476 8.59881 13.8323 8.40088 13.5668 8.40088Z" fill="white"/>
<path d="M9.97578 40.0132H11.007C10.9533 40.5073 10.8119 40.9495 10.5827 41.3398C10.3535 41.7301 10.0295 42.0399 9.61055 42.269C9.1916 42.4946 8.66882 42.6074 8.04219 42.6074C7.58385 42.6074 7.1667 42.5215 6.79072 42.3496C6.41833 42.1777 6.09785 41.9342 5.8293 41.6191C5.56074 41.3005 5.35306 40.9191 5.20625 40.4751C5.06302 40.0275 4.99141 39.5298 4.99141 38.9819V38.2031C4.99141 37.6553 5.06302 37.1593 5.20625 36.7153C5.35306 36.2677 5.56253 35.8846 5.83467 35.5659C6.11038 35.2472 6.4416 35.002 6.82832 34.8301C7.21504 34.6582 7.6501 34.5723 8.1335 34.5723C8.72432 34.5723 9.22383 34.6833 9.63203 34.9053C10.0402 35.1273 10.3571 35.4352 10.5827 35.8291C10.8119 36.2194 10.9533 36.6724 11.007 37.188H9.97578C9.92565 36.8228 9.83255 36.5094 9.69648 36.248C9.56042 35.9831 9.36706 35.779 9.11641 35.6357C8.86576 35.4925 8.53812 35.4209 8.1335 35.4209C7.78617 35.4209 7.48001 35.4871 7.21504 35.6196C6.95365 35.7521 6.73343 35.9401 6.55439 36.1836C6.37894 36.4271 6.24645 36.7189 6.15693 37.0591C6.06742 37.3993 6.02266 37.777 6.02266 38.1924V38.9819C6.02266 39.3651 6.06204 39.7249 6.14082 40.0615C6.22318 40.3981 6.34671 40.6935 6.51143 40.9478C6.67614 41.202 6.88561 41.4025 7.13984 41.5493C7.39408 41.6925 7.69486 41.7642 8.04219 41.7642C8.48262 41.7642 8.83353 41.6943 9.09492 41.5547C9.35632 41.415 9.55326 41.2145 9.68574 40.9531C9.82181 40.6917 9.91849 40.3784 9.97578 40.0132ZM13.2629 34.25V42.5H12.2692V34.25H13.2629ZM13.0266 39.374L12.613 39.3579C12.6166 38.9604 12.6757 38.5934 12.7902 38.2568C12.9048 37.9167 13.066 37.6213 13.2736 37.3706C13.4813 37.12 13.7284 36.9266 14.0148 36.7905C14.3049 36.6509 14.6254 36.5811 14.9763 36.5811C15.2627 36.5811 15.5205 36.6204 15.7497 36.6992C15.9789 36.7744 16.174 36.8962 16.3352 37.0645C16.4999 37.2327 16.6252 37.4512 16.7111 37.7197C16.7971 37.9847 16.84 38.3088 16.84 38.6919V42.5H15.841V38.6812C15.841 38.3768 15.7963 38.1333 15.7067 37.9507C15.6172 37.7645 15.4865 37.6302 15.3146 37.5479C15.1428 37.4619 14.9315 37.4189 14.6809 37.4189C14.4338 37.4189 14.2082 37.4709 14.0041 37.5747C13.8036 37.6785 13.6299 37.8218 13.4831 38.0044C13.3399 38.187 13.2271 38.3965 13.1447 38.6328C13.066 38.8656 13.0266 39.1126 13.0266 39.374ZM21.7546 41.5063V38.5146C21.7546 38.2855 21.708 38.0868 21.6149 37.9185C21.5254 37.7466 21.3894 37.6141 21.2067 37.521C21.0241 37.4279 20.7985 37.3813 20.53 37.3813C20.2793 37.3813 20.0591 37.4243 19.8693 37.5103C19.6831 37.5962 19.5363 37.709 19.4289 37.8486C19.3251 37.9883 19.2731 38.1387 19.2731 38.2998H18.2795C18.2795 38.0921 18.3332 37.8862 18.4406 37.6821C18.548 37.478 18.702 37.2936 18.9025 37.1289C19.1066 36.9606 19.3501 36.8281 19.633 36.7314C19.9195 36.6312 20.2382 36.5811 20.5891 36.5811C21.0116 36.5811 21.384 36.6527 21.7062 36.7959C22.0321 36.9391 22.2863 37.1558 22.4689 37.4458C22.6551 37.7323 22.7482 38.0921 22.7482 38.5254V41.2324C22.7482 41.4258 22.7644 41.6317 22.7966 41.8501C22.8324 42.0685 22.8843 42.2565 22.9523 42.4141V42.5H21.9157C21.8656 42.3854 21.8262 42.2332 21.7976 42.0435C21.7689 41.8501 21.7546 41.6711 21.7546 41.5063ZM21.9265 38.9766L21.9372 39.6748H20.9328C20.6499 39.6748 20.3975 39.6981 20.1755 39.7446C19.9535 39.7876 19.7673 39.8538 19.6169 39.9434C19.4665 40.0329 19.3519 40.1457 19.2731 40.2817C19.1944 40.4142 19.155 40.57 19.155 40.749C19.155 40.9316 19.1962 41.0981 19.2785 41.2485C19.3609 41.3989 19.4844 41.5189 19.6491 41.6084C19.8174 41.6943 20.0233 41.7373 20.2668 41.7373C20.5712 41.7373 20.8397 41.6729 21.0725 41.5439C21.3052 41.415 21.4896 41.2575 21.6257 41.0713C21.7653 40.8851 21.8405 40.7043 21.8513 40.5288L22.2756 41.0068C22.2505 41.1572 22.1825 41.3237 22.0715 41.5063C21.9605 41.689 21.8119 41.8644 21.6257 42.0327C21.4431 42.1974 21.2246 42.3353 20.9704 42.4463C20.7198 42.5537 20.4369 42.6074 20.1218 42.6074C19.7279 42.6074 19.3824 42.5304 19.0852 42.3765C18.7915 42.2225 18.5624 42.0166 18.3977 41.7588C18.2365 41.4974 18.156 41.2056 18.156 40.8833C18.156 40.5718 18.2168 40.2979 18.3386 40.0615C18.4603 39.8216 18.6358 39.6229 18.8649 39.4653C19.0941 39.3042 19.3698 39.1825 19.6921 39.1001C20.0144 39.0177 20.3742 38.9766 20.7717 38.9766H21.9265ZM26.7443 36.6885V37.4512H23.6022V36.6885H26.7443ZM24.6657 35.2759H25.6594V41.0605C25.6594 41.2575 25.6898 41.4061 25.7507 41.5063C25.8116 41.6066 25.8903 41.6729 25.987 41.7051C26.0837 41.7373 26.1875 41.7534 26.2985 41.7534C26.3809 41.7534 26.4668 41.7463 26.5563 41.7319C26.6494 41.714 26.7193 41.6997 26.7658 41.689L26.7712 42.5C26.6924 42.5251 26.5886 42.5483 26.4597 42.5698C26.3343 42.5949 26.1822 42.6074 26.0031 42.6074C25.7596 42.6074 25.5358 42.5591 25.3317 42.4624C25.1276 42.3657 24.9647 42.2046 24.843 41.979C24.7248 41.7498 24.6657 41.4419 24.6657 41.0552V35.2759Z" fill="white"/>
</svg>
