<svg width="57" height="47" viewBox="0 0 57 47" fill="none" xmlns="http://www.w3.org/2000/svg">
<path d="M53.2343 12.8845H38.8027V3.15379C38.8027 2.45005 38.4986 1.7747 37.9574 1.2772C37.4162 0.779689 36.6817 0.5 35.9164 0.5H3.20464C2.43925 0.5 1.70473 0.779598 1.16364 1.2772C0.622551 1.77479 0.318359 2.45014 0.318359 3.15379V22.6153C0.318359 23.319 0.622452 23.9944 1.16364 24.4919C1.70483 24.9894 2.43935 25.2691 3.20464 25.2691H5.12886V33.2306C5.13101 33.5876 5.36594 33.9086 5.72546 34.0445C5.83971 34.0939 5.9647 34.1184 6.09097 34.1152C6.34653 34.1164 6.59264 34.0244 6.77389 33.8585L16.0776 25.2691H17.6363V34.9998C17.6363 35.7035 17.9404 36.3789 18.4816 36.8764C19.0228 37.3739 19.7573 37.6536 20.5226 37.6536H39.3898L48.703 46.243H48.7034C48.8846 46.4089 49.1308 46.5009 49.3863 46.4997C49.5126 46.5029 49.6376 46.4784 49.7518 46.429C50.1113 46.2932 50.3463 45.9721 50.3484 45.6151V37.6536H53.2348C54.0001 37.6536 54.7347 37.374 55.2758 36.8764C55.8168 36.3788 56.121 35.7035 56.121 34.9998V15.5383C56.121 14.8346 55.8169 14.1592 55.2758 13.6617C54.7346 13.1642 54 12.8845 53.2348 12.8845H53.2343ZM15.8374 23.4999C15.5444 23.4643 15.2489 23.5481 15.0295 23.7297H14.9719L7.05334 31.0898V24.3845C7.05334 24.15 6.95197 23.9249 6.77158 23.759C6.59118 23.5931 6.34636 23.4999 6.09123 23.4999H3.2049C2.67359 23.4999 2.24279 23.1038 2.24279 22.6153V3.15383C2.24279 2.66532 2.67359 2.26922 3.2049 2.26922H35.9167C36.1718 2.26922 36.4166 2.36242 36.597 2.52828C36.7774 2.69414 36.8788 2.91925 36.8788 3.15383V22.6153C36.8788 22.8499 36.7774 23.075 36.597 23.2409C36.4166 23.4067 36.1718 23.4999 35.9167 23.4999L15.8374 23.4999ZM54.1965 34.9999C54.1965 35.2344 54.0951 35.4595 53.9147 35.6254C53.7343 35.7913 53.4895 35.8845 53.2343 35.8845H49.3859C48.8546 35.8845 48.4238 36.2806 48.4238 36.7691V43.4743L40.4383 36.1143L40.3807 36.0614C40.1337 35.8674 39.7974 35.8007 39.4856 35.8844H20.5227C19.9914 35.8844 19.5606 35.4883 19.5606 34.9998V25.2691H35.9165C36.6818 25.2691 37.4164 24.9895 37.9575 24.4919C38.4985 23.9943 38.8027 23.3189 38.8027 22.6153V14.6538H53.2344C53.4895 14.6538 53.7344 14.747 53.9147 14.9128C54.0951 15.0787 54.1965 15.3038 54.1965 15.5384L54.1965 34.9999Z" fill="white"/>
<path d="M29.5096 5.27734H6.50961C6.0211 5.27734 5.625 5.64154 5.625 6.0907C5.625 6.53986 6.0211 6.90406 6.50961 6.90406H29.5096C29.9981 6.90406 30.3942 6.53986 30.3942 6.0907C30.3942 5.64154 29.9981 5.27734 29.5096 5.27734Z" fill="white"/>
<path d="M26.8557 10.1562H6.50961C6.0211 10.1562 5.625 10.5204 5.625 10.9696C5.625 11.4188 6.0211 11.783 6.50961 11.783H26.8557C27.3442 11.783 27.7403 11.4188 27.7403 10.9696C27.7403 10.5204 27.3442 10.1562 26.8557 10.1562Z" fill="white"/>
<path d="M24.2019 15.0376H6.50961C6.0211 15.0376 5.625 15.4018 5.625 15.851C5.625 16.3001 6.0211 16.6643 6.50961 16.6643H24.2019C24.6904 16.6643 25.0865 16.3001 25.0865 15.851C25.0865 15.4018 24.6904 15.0376 24.2019 15.0376Z" fill="white"/>
</svg>
