<svg width="81" height="80" viewBox="0 0 81 80" fill="none" xmlns="http://www.w3.org/2000/svg">
<ellipse cx="40.4587" cy="40" rx="39.9021" ry="40" fill="#4CBBEC"/>
<path d="M40.4541 43.2588C39.1619 43.2588 37.9571 43.8629 37.1602 44.8721H37.1592C36.3657 45.8776 36.0522 47.1871 36.2871 48.4443V48.4453C36.4431 49.2794 36.8342 50.046 37.4053 50.6533L36.5811 53.2139L36.5654 53.2666C36.3819 53.9169 36.4985 54.6235 36.8945 55.1816C37.2942 55.7457 37.943 56.1019 38.6572 56.1094H42.2422C42.9582 56.1019 43.6049 55.7434 44.0039 55.1807L44.0049 55.1816C44.4018 54.6222 44.5159 53.9162 44.334 53.2686L44.3271 53.2432L44.3193 53.2178L43.5 50.6553C44.0724 50.0477 44.465 49.2808 44.6211 48.4453C44.8562 47.1884 44.5434 45.8782 43.749 44.8721H43.748C42.9511 43.863 41.7464 43.2588 40.4541 43.2588ZM27.8965 40.9697C27.8962 40.4146 28.0967 39.8905 28.4424 39.499C28.7858 39.1101 29.2436 38.8823 29.7197 38.8408L30.1934 38.8047L31.0547 38.7363C30.4456 39.0188 29.8957 39.4278 29.4414 39.9404C28.6136 40.8744 28.1605 42.0868 28.1553 43.3359V52.0742C28.1554 53.0175 28.6068 53.9215 29.3926 54.4697L29.5537 54.5742C30.4457 55.1113 31.5533 55.1112 32.4453 54.5742H32.4463C33.3299 54.0418 33.8437 53.0807 33.8438 52.0742V43.9473C34.5692 43.6874 35.1613 43.1388 35.4834 42.4316C35.9031 41.5107 35.8223 40.4275 35.2617 39.5791C34.961 39.1238 34.5411 38.7688 34.0566 38.5488C34.6009 38.5214 35.1451 38.497 35.6885 38.4756L36.9316 38.4258L38.3447 38.4014C39.7527 38.3769 41.1558 38.3769 42.5547 38.4014L44.0029 38.4268L45.2158 38.4707C46.1605 38.5045 47.104 38.55 48.0459 38.6055L49.3232 38.6807V38.6895L50.709 38.7959L51.1816 38.8311V38.832C51.5984 38.8684 52.0011 39.0473 52.3252 39.3525L52.46 39.4912C52.8045 39.8825 53.0044 40.4061 53.0039 40.96V55.751C53.0042 56.237 52.8502 56.6998 52.5801 57.0703L52.458 57.2227C52.1138 57.6124 51.6545 57.8402 51.1768 57.8809H51.1748C44.0333 58.4933 36.8562 58.4931 29.7148 57.8809H29.7158C29.24 57.8386 28.7822 57.6105 28.4395 57.2207V57.2197C28.0957 56.8288 27.8959 56.3058 27.8965 55.752V40.9697Z" stroke="white" stroke-width="3"/>
</svg>
