<svg width="80" height="80" viewBox="0 0 80 80" fill="none" xmlns="http://www.w3.org/2000/svg">
<ellipse cx="39.9021" cy="40" rx="39.9021" ry="40" fill="#4CBBEC"/>
<path d="M56.5609 28.5702H51.3054L50.3729 22.6479C50.2035 21.6527 49.7373 20.7529 48.9742 20.1841C48.2114 19.6157 47.3212 19.3787 46.431 19.5681L22.526 24.2586C20.6609 24.6377 19.4319 26.5803 19.7711 28.6647L23.4585 51.9275C23.6279 52.9227 24.1367 53.7753 24.8572 54.3913C25.4506 54.8652 26.0862 55.1019 26.807 55.1019C27.019 55.1019 27.231 55.1018 27.4004 55.0546L28.884 54.7704V56.0497C28.884 58.1344 30.4099 59.84 32.2749 59.84H56.5614C58.4264 59.84 59.9522 58.1344 59.9522 56.0497L59.9519 32.4078C59.9519 30.2758 58.4261 28.5702 56.5611 28.5702L56.5609 28.5702ZM54.6114 36.7193C54.6114 38.0459 53.6789 39.0882 52.4922 39.0882C51.3054 39.0882 50.3729 38.0459 50.3729 36.7193C50.3729 35.3927 51.3054 34.3504 52.4922 34.3504C53.6363 34.3504 54.6114 35.44 54.6114 36.7193V36.7193ZM26.8494 51.9278C26.6374 51.9751 26.468 51.8805 26.4254 51.833C26.3405 51.7857 26.2134 51.6436 26.1711 51.4066L22.526 28.1438C22.4838 27.7647 22.6954 27.4332 22.9923 27.3856L46.8973 22.6478H46.9822C47.1516 22.6478 47.279 22.7426 47.3213 22.7899C47.4061 22.8371 47.5333 22.9793 47.5755 23.2162L48.4232 28.6174H32.2745C30.4095 28.6174 28.8837 30.323 28.8837 32.4077V51.5487L26.8494 51.9278ZM56.5611 56.6657H32.2746C31.9355 56.6657 31.6812 56.3814 31.6812 56.0024V49.5589L39.6072 39.3725C39.8192 39.0883 40.2006 39.0883 40.4126 39.3725L45.3293 45.6263C45.4141 45.7212 45.4564 45.8633 45.4141 46.0054L44.7785 49.227C44.7362 49.4639 44.9905 49.606 45.1176 49.4163L50.0343 43.3992C50.2037 43.2098 50.4583 43.2098 50.5854 43.3992L57.1125 51.4062V56.0019C57.1122 56.3813 56.858 56.6656 56.5611 56.6656L56.5611 56.6657Z" fill="white"/>
</svg>
