<svg width="80" height="80" viewBox="0 0 80 80" fill="none" xmlns="http://www.w3.org/2000/svg">
<ellipse cx="39.9021" cy="40" rx="39.9021" ry="40" fill="#4CBBEC"/>
<path fill-rule="evenodd" clip-rule="evenodd" d="M29.344 20H50.5399V26.7241L48.019 23.8573C47.5907 23.3682 47.5176 23.3622 47.0071 23.3622H29.3438L29.344 20Z" fill="white"/>
<path fill-rule="evenodd" clip-rule="evenodd" d="M51.8809 21.0781L52.9149 22.1686L57.5583 27.0146L58.3202 27.8022H51.8809L51.8809 21.0781Z" fill="white"/>
<path fill-rule="evenodd" clip-rule="evenodd" d="M25.3171 24.3008H46.5126V32.3697L42.7872 28.5726C42.5206 28.3389 42.335 28.0978 42.0553 28.0978C42.1383 28.1055 25.9053 28.0978 25.9053 28.0978H25.3164L25.3171 24.3008Z" fill="white"/>
<path fill-rule="evenodd" clip-rule="evenodd" d="M47.5865 25.1133L48.6662 26.3424L52.837 31.082L53.4887 31.8374H47.5859V26.6237L47.5865 25.1133Z" fill="white"/>
<path fill-rule="evenodd" clip-rule="evenodd" d="M52.416 28.6055H58.8554V50.1226H55.3429V32.4307C55.3429 31.9751 55.0571 31.71 54.8488 31.4222L52.416 28.6055Z" fill="white"/>
<path fill-rule="evenodd" clip-rule="evenodd" d="M19.9512 29.1489V59.0035H49.4648V37.6788H41.7912C41.5215 37.6788 41.1814 37.409 41.1826 37.2048L41.2012 29.6225V29.1484H19.9513L19.9512 29.1489ZM24.6735 34.3618H36.4789C36.7408 34.3571 37.0875 34.6255 37.0875 34.8358C37.0875 35.046 36.7404 35.3128 36.4789 35.3098H24.6735C24.4116 35.3144 24.0649 35.046 24.0649 34.8358C24.0649 34.6255 24.412 34.3588 24.6735 34.3618ZM24.6735 37.2052H36.4789C36.7408 37.2006 37.0875 37.469 37.0875 37.6792C37.0875 37.8895 36.7404 38.1562 36.4789 38.1533H24.6735C24.4116 38.1579 24.0649 37.8895 24.0649 37.6792C24.0649 37.469 24.412 37.2023 24.6735 37.2052V37.2052ZM24.6735 40.0487H36.4789C36.7408 40.0441 37.0875 40.3125 37.0875 40.5227C37.0875 40.7329 36.7404 40.9997 36.4789 40.9967H24.6735C24.4116 41.0014 24.0649 40.7329 24.0649 40.5227C24.0649 40.3125 24.412 40.0457 24.6735 40.0487ZM24.6735 42.8922H36.4789C36.7408 42.8875 37.0875 43.1559 37.0875 43.3662C37.0875 43.5764 36.7404 43.8432 36.4789 43.8402H24.6735C24.4116 43.8448 24.0649 43.5764 24.0649 43.3662C24.0649 43.1559 24.412 42.8892 24.6735 42.8922ZM24.6735 45.7356H36.4789C36.7408 45.731 37.0875 45.9994 37.0875 46.2096C37.0875 46.4199 36.7404 46.6866 36.4789 46.6837H24.6735C24.4116 46.6883 24.0649 46.4199 24.0649 46.2096C24.0649 45.9994 24.412 45.7327 24.6735 45.7356ZM24.6735 49.0527H36.4789C36.7408 49.0481 37.0875 49.3165 37.0875 49.5267C37.0875 49.737 36.7404 50.0037 36.4789 50.0008H24.6735C24.4116 50.0054 24.0649 49.737 24.0649 49.5267C24.0649 49.3165 24.412 49.0497 24.6735 49.0527ZM24.6549 51.8962H36.4973C36.7592 51.8916 37.0877 52.1596 37.0877 52.3702C37.0877 52.5808 36.7596 52.8475 36.4973 52.8442H24.6549C24.3931 52.8488 24.0645 52.5808 24.0645 52.3702C24.0645 52.1596 24.3927 51.8929 24.6549 51.8962ZM24.6735 54.7397H36.4789C36.7408 54.735 37.0875 55.0034 37.0875 55.2137C37.0875 55.4239 36.7404 55.6907 36.4789 55.6877H24.6735C24.4116 55.6923 24.0649 55.4239 24.0649 55.2137C24.0649 55.0034 24.412 54.7367 24.6735 54.7397Z" fill="white"/>
<path fill-rule="evenodd" clip-rule="evenodd" d="M42.2207 29.9492L48.66 36.6733H42.2207V29.9492Z" fill="white"/>
<path fill-rule="evenodd" clip-rule="evenodd" d="M47.0508 32.9141H54.295V54.4312H50.7009V36.7393C50.7009 36.7537 50.7335 36.6159 50.5513 36.4705L47.0508 32.9141Z" fill="white"/>
</svg>
