<svg width="51" height="46" viewBox="0 0 51 46" fill="none" xmlns="http://www.w3.org/2000/svg">
<path d="M45.0491 0.5H5.76339C4.34237 0.5 2.98003 1.21726 1.97513 2.49376C0.970658 3.77077 0.40625 5.5021 0.40625 7.30796V38.692C0.40625 40.4979 0.970658 42.2292 1.97513 43.5062C2.98 44.7827 4.34237 45.5 5.76339 45.5H45.0491C46.4701 45.5 47.8325 44.7827 48.8374 43.5062C49.8418 42.2292 50.4062 40.4979 50.4062 38.692V7.30796C50.4062 5.5021 49.8418 3.77081 48.8374 2.49376C47.8325 1.21726 46.4701 0.5 45.0491 0.5ZM46.8348 37.5133L35.4593 25.8263L33.2092 29.3437L44.5123 40.9629H7.01227L17.7266 29.4572L15.4051 26.0076L3.97656 38.1941V9.50986L21.8337 29.2076V29.2081C22.8067 30.2749 24.0487 30.862 25.3338 30.862C26.6189 30.862 27.8609 30.2749 28.8339 29.2081L46.691 9.51036L46.8348 37.5133Z" fill="white"/>
</svg>
