<svg width="28" height="48" viewBox="0 0 28 48" fill="none" xmlns="http://www.w3.org/2000/svg">
<path d="M25 0.5H3C2.20423 0.5 1.44131 0.898478 0.878571 1.60765C0.316069 2.31709 0 3.27895 0 4.2822V21.7178C0 22.7211 0.316069 23.6829 0.878571 24.3924C1.4413 25.1015 2.20423 25.5 3 25.5H25C25.7958 25.5 26.5587 25.1015 27.1214 24.3924C27.6839 23.6829 28 22.7211 28 21.7178V4.2822C28 3.27895 27.6839 2.31711 27.1214 1.60765C26.5587 0.898478 25.7958 0.5 25 0.5ZM26 21.0629L19.6297 14.5702L18.3697 16.5243L24.6994 22.9794H3.69937L9.69937 16.5873L8.39937 14.6709L1.99937 21.4412V5.50548L11.9994 16.4486V16.4489C12.5442 17.0416 13.2398 17.3678 13.9594 17.3678C14.6791 17.3678 15.3746 17.0416 15.9195 16.4489L25.9195 5.50576L26 21.0629Z" fill="white"/>
<path d="M6.26025 41.6567V42.5H2.11914V41.6567H6.26025ZM2.32861 34.6797V42.5H1.29199V34.6797H2.32861ZM5.7124 38.042V38.8853H2.11914V38.042H5.7124ZM6.20654 34.6797V35.5283H2.11914V34.6797H6.20654ZM8.38184 37.8433V42.5H7.38281V36.6885H8.32812L8.38184 37.8433ZM8.17773 39.374L7.71582 39.3579C7.7194 38.9604 7.77132 38.5934 7.87158 38.2568C7.97184 37.9167 8.12044 37.6213 8.31738 37.3706C8.51432 37.12 8.7596 36.9266 9.05322 36.7905C9.34684 36.6509 9.68701 36.5811 10.0737 36.5811C10.3459 36.5811 10.5965 36.6204 10.8257 36.6992C11.0549 36.7744 11.2536 36.8944 11.4219 37.0591C11.5902 37.2238 11.7209 37.4351 11.814 37.6929C11.9071 37.9507 11.9536 38.2622 11.9536 38.6274V42.5H10.96V38.6758C10.96 38.3714 10.908 38.1279 10.8042 37.9453C10.7039 37.7627 10.5607 37.6302 10.3745 37.5479C10.1883 37.4619 9.96989 37.4189 9.71924 37.4189C9.42562 37.4189 9.18034 37.4709 8.9834 37.5747C8.78646 37.6785 8.62891 37.8218 8.51074 38.0044C8.39258 38.187 8.30664 38.3965 8.25293 38.6328C8.2028 38.8656 8.17773 39.1126 8.17773 39.374ZM11.9429 38.8262L11.2769 39.0303C11.2804 38.7116 11.3324 38.4054 11.4326 38.1118C11.5365 37.8182 11.6851 37.5568 11.8784 37.3276C12.0754 37.0985 12.3171 36.9176 12.6035 36.7852C12.89 36.6491 13.2176 36.5811 13.5864 36.5811C13.8979 36.5811 14.1737 36.6222 14.4136 36.7046C14.6571 36.7869 14.8612 36.9141 15.0259 37.0859C15.1942 37.2542 15.3213 37.4709 15.4072 37.7358C15.4932 38.0008 15.5361 38.3159 15.5361 38.6812V42.5H14.5371V38.6704C14.5371 38.3446 14.4852 38.0921 14.3813 37.9131C14.2811 37.7305 14.1379 37.6034 13.9517 37.5317C13.769 37.4565 13.5506 37.4189 13.2964 37.4189C13.078 37.4189 12.8846 37.4565 12.7163 37.5317C12.548 37.6069 12.4066 37.7108 12.292 37.8433C12.1774 37.9722 12.0897 38.1208 12.0288 38.2891C11.9715 38.4574 11.9429 38.6364 11.9429 38.8262ZM20.4668 41.5063V38.5146C20.4668 38.2855 20.4202 38.0868 20.3271 37.9185C20.2376 37.7466 20.1016 37.6141 19.9189 37.521C19.7363 37.4279 19.5107 37.3813 19.2422 37.3813C18.9915 37.3813 18.7713 37.4243 18.5815 37.5103C18.3953 37.5962 18.2485 37.709 18.1411 37.8486C18.0373 37.9883 17.9854 38.1387 17.9854 38.2998H16.9917C16.9917 38.0921 17.0454 37.8862 17.1528 37.6821C17.2603 37.478 17.4142 37.2936 17.6147 37.1289C17.8188 36.9606 18.0623 36.8281 18.3452 36.7314C18.6317 36.6312 18.9504 36.5811 19.3013 36.5811C19.7238 36.5811 20.0962 36.6527 20.4185 36.7959C20.7443 36.9391 20.9985 37.1558 21.1812 37.4458C21.3674 37.7323 21.4604 38.0921 21.4604 38.5254V41.2324C21.4604 41.4258 21.4766 41.6317 21.5088 41.8501C21.5446 42.0685 21.5965 42.2565 21.6646 42.4141V42.5H20.6279C20.5778 42.3854 20.5384 42.2332 20.5098 42.0435C20.4811 41.8501 20.4668 41.6711 20.4668 41.5063ZM20.6387 38.9766L20.6494 39.6748H19.645C19.3621 39.6748 19.1097 39.6981 18.8877 39.7446C18.6657 39.7876 18.4795 39.8538 18.3291 39.9434C18.1787 40.0329 18.0641 40.1457 17.9854 40.2817C17.9066 40.4142 17.8672 40.57 17.8672 40.749C17.8672 40.9316 17.9084 41.0981 17.9907 41.2485C18.0731 41.3989 18.1966 41.5189 18.3613 41.6084C18.5296 41.6943 18.7355 41.7373 18.979 41.7373C19.2834 41.7373 19.5519 41.6729 19.7847 41.5439C20.0174 41.415 20.2018 41.2575 20.3379 41.0713C20.4775 40.8851 20.5527 40.7043 20.5635 40.5288L20.9878 41.0068C20.9627 41.1572 20.8947 41.3237 20.7837 41.5063C20.6727 41.689 20.5241 41.8644 20.3379 42.0327C20.1553 42.1974 19.9368 42.3353 19.6826 42.4463C19.432 42.5537 19.1491 42.6074 18.834 42.6074C18.4401 42.6074 18.0946 42.5304 17.7974 42.3765C17.5037 42.2225 17.2746 42.0166 17.1099 41.7588C16.9487 41.4974 16.8682 41.2056 16.8682 40.8833C16.8682 40.5718 16.929 40.2979 17.0508 40.0615C17.1725 39.8216 17.348 39.6229 17.5771 39.4653C17.8063 39.3042 18.082 39.1825 18.4043 39.1001C18.7266 39.0177 19.0864 38.9766 19.4839 38.9766H20.6387ZM24.103 36.6885V42.5H23.104V36.6885H24.103ZM23.0288 35.147C23.0288 34.9858 23.0771 34.8498 23.1738 34.7388C23.2741 34.6278 23.4209 34.5723 23.6143 34.5723C23.804 34.5723 23.9491 34.6278 24.0493 34.7388C24.1532 34.8498 24.2051 34.9858 24.2051 35.147C24.2051 35.3009 24.1532 35.4334 24.0493 35.5444C23.9491 35.6519 23.804 35.7056 23.6143 35.7056C23.4209 35.7056 23.2741 35.6519 23.1738 35.5444C23.0771 35.4334 23.0288 35.3009 23.0288 35.147ZM26.7778 34.25V42.5H25.7788V34.25H26.7778Z" fill="white"/>
</svg>
