<svg width="81" height="81" viewBox="0 0 81 81" fill="none" xmlns="http://www.w3.org/2000/svg">
<circle cx="40.5" cy="40.5" r="40.5" fill="#4CBBEC"/>
<path d="M21.1191 38.7833V57.3944C21.1191 58.7647 22.2273 59.8759 23.5945 59.8759H58.2502C59.6175 59.8759 60.7256 58.7647 60.7256 57.3944V33.8203H21.1191V38.7833ZM54.0166 35.0611H59.4882V38.7833H52.6228L54.0166 35.0611ZM41.583 35.0611H47.1391L45.7453 38.7833H40.189L41.583 35.0611ZM29.1487 35.0611H34.7048L33.311 38.7833H27.7549L29.1487 35.0611ZM22.3573 40.024H59.4884V57.3944C59.4884 58.0787 58.9331 58.6351 58.2507 58.6351H23.595C22.9127 58.6351 22.3573 58.0787 22.3573 57.3944V40.024Z" fill="white"/>
<path d="M57.6572 20.1719C57.5166 20.1719 57.3743 20.1838 57.2312 20.2085L23.1654 26.1125C21.8213 26.3451 20.9217 27.6169 21.1563 28.9518L21.7926 32.5793L60.7258 25.8325L60.089 22.2058C59.8796 21.0125 58.8361 20.1719 57.6575 20.1719L57.6572 20.1719ZM33.5376 29.2846L28.0792 30.2307L28.789 26.3966L34.247 25.4508L33.5376 29.2846ZM45.7548 27.1676L40.2967 28.1134L41.0059 24.2799L46.4642 23.3338L45.7548 27.1676ZM52.514 25.9964L53.2235 22.1623L57.4414 21.4314C57.5132 21.4189 57.5859 21.4125 57.6577 21.4125C58.2578 21.4125 58.7675 21.8365 58.8703 22.4206L59.2919 24.8218L52.514 25.9964Z" fill="white"/>
<path d="M42.159 52.7368C42.159 53.422 41.6048 53.9776 40.9213 53.9776C40.2378 53.9776 39.6836 53.422 39.6836 52.7368C39.6836 52.0517 40.2378 51.4961 40.9213 51.4961C41.6048 51.4961 42.159 52.0517 42.159 52.7368Z" fill="white"/>
<path d="M42.159 45.9126C42.159 46.5978 41.6048 47.1534 40.9213 47.1534C40.2378 47.1534 39.6836 46.5978 39.6836 45.9126C39.6836 45.2274 40.2378 44.6719 40.9213 44.6719C41.6048 44.6719 42.159 45.2274 42.159 45.9126Z" fill="white"/>
<path d="M40.5684 57.3861C40.5833 57.3886 40.5969 57.3953 40.6126 57.3953H48.6577C48.8284 57.3953 48.9671 57.2565 48.9671 57.0851C48.9671 56.9136 48.8284 56.7749 48.6577 56.7749H44.0196C46.9249 55.5588 48.9671 52.6841 48.9671 49.3304C48.9671 44.876 45.365 41.2656 40.922 41.2656C36.479 41.2656 32.877 44.8763 32.877 49.3304C32.877 53.6653 36.2895 57.2003 40.5684 57.386V57.3861ZM40.922 54.6036C39.8965 54.6036 39.0655 53.7702 39.0655 52.7425C39.0655 51.7147 39.8965 50.8814 40.922 50.8814C41.9476 50.8814 42.7786 51.7147 42.7786 52.7425C42.7786 53.7702 41.9476 54.6036 40.922 54.6036ZM44.3257 47.4697C45.351 47.4697 46.1823 48.3028 46.1823 49.3308C46.1823 50.3588 45.351 51.1919 44.3257 51.1919C43.3005 51.1919 42.4692 50.3588 42.4692 49.3308C42.4692 48.3028 43.3005 47.4697 44.3257 47.4697ZM40.922 44.0577C41.9476 44.0577 42.7786 44.891 42.7786 45.9188C42.7786 46.9465 41.9476 47.7799 40.922 47.7799C39.8965 47.7799 39.0655 46.9465 39.0655 45.9188C39.0655 44.891 39.8965 44.0577 40.922 44.0577ZM37.5183 47.4697C38.5436 47.4697 39.3749 48.3028 39.3749 49.3308C39.3749 50.3588 38.5436 51.1919 37.5183 51.1919C36.4931 51.1919 35.6618 50.3586 35.6618 49.3308C35.6618 48.3028 36.4931 47.4697 37.5183 47.4697Z" fill="white"/>
</svg>
