<svg width="30" height="30" viewBox="0 0 30 30" fill="none" xmlns="http://www.w3.org/2000/svg">
<path fill-rule="evenodd" clip-rule="evenodd" d="M22.9892 24.5042L28.1717 29.6865C28.5895 30.1045 29.2687 30.1045 29.6865 29.6865C30.1045 29.2687 30.1045 28.5895 29.6865 28.1717L24.5042 22.9893C26.5935 20.5528 27.8567 17.3869 27.8567 13.9283C27.8567 6.24108 21.6156 0 13.9283 0C6.24112 0 0 6.24108 0 13.9283C0 21.6154 6.24112 27.8565 13.9283 27.8565C17.3867 27.8565 20.5527 26.5933 22.9894 24.5041L22.9892 24.5042ZM13.9282 2.14311C20.4325 2.14311 25.7137 7.42385 25.7137 13.9286C25.7137 20.4329 20.4327 25.714 13.9282 25.714C7.42316 25.714 2.14264 20.433 2.14264 13.9286C2.14264 7.42361 7.42341 2.14311 13.9282 2.14311ZM13.9282 21.4284C9.78915 21.4284 6.42828 18.0683 6.42828 13.9286C6.42828 13.3371 5.94806 12.8572 5.35687 12.8572C4.76544 12.8572 4.28546 13.3371 4.28546 13.9286C4.28546 19.2502 8.60625 23.5712 13.9282 23.5712C14.5193 23.5712 14.9996 23.091 14.9996 22.4998C14.9996 21.9084 14.5193 21.4284 13.9282 21.4284Z" fill="#4CBBEC"/>
</svg>
