<svg width="28" height="22" viewBox="0 0 28 22" fill="none" xmlns="http://www.w3.org/2000/svg">
<path d="M25 0H3C2.20423 0 1.44131 0.350661 0.878571 0.974728C0.316069 1.59904 0 2.44547 0 3.32834V18.6717C0 19.5545 0.316069 20.4009 0.878571 21.0253C1.4413 21.6493 2.20423 22 3 22H25C25.7958 22 26.5587 21.6493 27.1214 21.0253C27.6839 20.401 28 19.5545 28 18.6717V3.32834C28 2.44547 27.6839 1.59906 27.1214 0.974728C26.5587 0.350661 25.7958 0 25 0ZM26 18.0954L19.6297 12.3817L18.3697 14.1014L24.6994 19.7819H3.69937L9.69937 14.1568L8.39937 12.4704L1.99937 18.4282V4.40482L11.9994 14.0348V14.0351C12.5442 14.5566 13.2398 14.8436 13.9594 14.8436C14.6791 14.8436 15.3746 14.5566 15.9195 14.0351L25.9195 4.40507L26 18.0954Z" fill="#FBFBFB"/>
</svg>
