<svg width="20" height="20" viewBox="0 0 20 20" fill="none" xmlns="http://www.w3.org/2000/svg">
<path fill-rule="evenodd" clip-rule="evenodd" d="M15.3262 16.3362L18.7811 19.791C19.0597 20.0697 19.5125 20.0697 19.791 19.791C20.0697 19.5124 20.0697 19.0597 19.791 18.7811L16.3361 15.3262C17.729 13.7019 18.5711 11.5912 18.5711 9.2855C18.5711 4.16072 14.4104 0 9.28556 0C4.16075 0 0 4.16072 0 9.2855C0 14.4103 4.16075 18.571 9.28556 18.571C11.5912 18.571 13.7018 17.7289 15.3263 16.336L15.3262 16.3362ZM9.28544 1.42874C13.6217 1.42874 17.1425 4.94923 17.1425 9.28571C17.1425 13.6219 13.6218 17.1427 9.28544 17.1427C4.94878 17.1427 1.42843 13.622 1.42843 9.28571C1.42843 4.94907 4.94894 1.42874 9.28544 1.42874ZM9.28544 14.2856C6.5261 14.2856 4.28552 12.0455 4.28552 9.28571C4.28552 8.89142 3.96537 8.57144 3.57125 8.57144C3.17696 8.57144 2.85697 8.89142 2.85697 9.28571C2.85697 12.8335 5.7375 15.7141 9.28544 15.7141C9.67956 15.7141 9.99971 15.394 9.99971 14.9999C9.99971 14.6056 9.67956 14.2856 9.28544 14.2856Z" fill="white"/>
</svg>
