<svg width="37" height="37" viewBox="0 0 37 37" fill="none" xmlns="http://www.w3.org/2000/svg">
<path d="M10.9985 0.494141C5.20922 0.494141 0.5 5.20772 0.5 10.9985V26.0006C0.5 31.7899 5.21358 36.4991 11.0044 36.4991H26.0064C31.7957 36.4991 36.505 31.7855 36.505 25.9947V10.9927C36.505 5.20336 31.7914 0.494141 26.0006 0.494141H10.9985ZM29.0039 6.49497C29.832 6.49497 30.5041 7.16706 30.5041 7.99517C30.5041 8.82329 29.832 9.49538 29.0039 9.49538C28.1758 9.49538 27.5037 8.82329 27.5037 7.99517C27.5037 7.16706 28.1758 6.49497 29.0039 6.49497ZM18.5025 9.49538C23.4667 9.49538 27.5037 13.5324 27.5037 18.4966C27.5037 23.4608 23.4667 27.4979 18.5025 27.4979C13.5383 27.4979 9.50124 23.4608 9.50124 18.4966C9.50124 13.5324 13.5383 9.49538 18.5025 9.49538ZM18.5025 12.4958C16.911 12.4958 15.3846 13.128 14.2593 14.2534C13.1339 15.3788 12.5017 16.9051 12.5017 18.4966C12.5017 20.0881 13.1339 21.6145 14.2593 22.7398C15.3846 23.8652 16.911 24.4974 18.5025 24.4974C20.094 24.4974 21.6203 23.8652 22.7457 22.7398C23.8711 21.6145 24.5033 20.0881 24.5033 18.4966C24.5033 16.9051 23.8711 15.3788 22.7457 14.2534C21.6203 13.128 20.094 12.4958 18.5025 12.4958Z" fill="#4CBBEC"/>
</svg>
