<svg width="44" height="48" viewBox="0 0 44 48" fill="none" xmlns="http://www.w3.org/2000/svg">
<path d="M26.5303 6.18311C27.1622 6.18311 27.7412 6.72742 27.7412 7.48193C27.7411 8.23622 27.1621 8.78076 26.5303 8.78076C25.8985 8.78053 25.3204 8.23611 25.3203 7.48193C25.3203 6.72754 25.8984 6.18334 26.5303 6.18311Z" fill="white" stroke="white" stroke-width="2"/>
<path d="M31.9457 0.5H12.0524C11.3893 0.5 10.9473 0.999955 10.9473 1.75V14.25C10.9473 15 11.3893 15.5 12.0524 15.5H20.8939V23H17.5784C16.9152 23 16.4732 23.5 16.4732 24.25C16.4732 25 16.9152 25.5 17.5784 25.5H26.4198C27.083 25.5 27.525 25 27.525 24.25C27.525 23.5 27.083 23 26.4198 23H23.1043V15.5H31.9457C32.6089 15.5 33.0509 15 33.0509 14.25V1.75C33.0509 0.999955 32.6089 0.5 31.9457 0.5ZM14.2628 5.5C13.5997 5.5 13.1576 5.00004 13.1576 4.25C13.1576 3.49996 13.5997 3 14.2628 3C14.926 3 15.368 3.49996 15.368 4.25C15.368 5.00004 14.926 5.5 14.2628 5.5ZM26.5303 13.25C24.0989 13.25 22.1096 11.0001 22.1096 8.25C22.1096 5.49991 24.0989 3.25 26.5303 3.25C28.9618 3.25 30.9511 5.49991 30.9511 8.25C30.9511 10.9999 28.9617 13.25 26.5303 13.25Z" fill="white"/>
<path d="M3.46973 40.1367L5.02197 34.6797H5.77393L5.33887 36.8013L3.66846 42.5H2.92188L3.46973 40.1367ZM1.86377 34.6797L3.09912 40.0293L3.46973 42.5H2.72852L0.83252 34.6797H1.86377ZM7.78271 40.0239L8.99121 34.6797H10.0278L8.13721 42.5H7.396L7.78271 40.0239ZM5.88672 34.6797L7.396 40.1367L7.94385 42.5H7.19727L5.58594 36.8013L5.14551 34.6797H5.88672ZM13.2666 42.6074C12.862 42.6074 12.495 42.5394 12.1655 42.4033C11.8397 42.2637 11.5586 42.0685 11.3223 41.8179C11.0895 41.5672 10.9105 41.27 10.7852 40.9263C10.6598 40.5825 10.5972 40.2065 10.5972 39.7983V39.5728C10.5972 39.1001 10.667 38.6794 10.8066 38.3105C10.9463 37.9382 11.1361 37.623 11.376 37.3652C11.6159 37.1074 11.888 36.9123 12.1924 36.7798C12.4967 36.6473 12.8118 36.5811 13.1377 36.5811C13.5531 36.5811 13.9111 36.6527 14.2119 36.7959C14.5163 36.9391 14.7651 37.1396 14.9585 37.3975C15.1519 37.6517 15.2951 37.9525 15.3882 38.2998C15.4813 38.6436 15.5278 39.0195 15.5278 39.4277V39.8735H11.188V39.0625H14.5342V38.9873C14.5199 38.7295 14.4661 38.4788 14.373 38.2354C14.2835 37.9919 14.1403 37.7913 13.9434 37.6338C13.7464 37.4762 13.4779 37.3975 13.1377 37.3975C12.9121 37.3975 12.7044 37.4458 12.5146 37.5425C12.3249 37.6356 12.1619 37.7752 12.0259 37.9614C11.8898 38.1476 11.7842 38.375 11.709 38.6436C11.6338 38.9121 11.5962 39.2218 11.5962 39.5728V39.7983C11.5962 40.0741 11.6338 40.3337 11.709 40.5771C11.7878 40.8171 11.9006 41.0283 12.0474 41.2109C12.1978 41.3936 12.3786 41.5368 12.5898 41.6406C12.8047 41.7445 13.0482 41.7964 13.3203 41.7964C13.6712 41.7964 13.9684 41.7248 14.2119 41.5815C14.4554 41.4383 14.6685 41.2467 14.8511 41.0068L15.4526 41.4849C15.3273 41.6746 15.168 41.8555 14.9746 42.0273C14.7812 42.1992 14.5431 42.3389 14.2603 42.4463C13.981 42.5537 13.6497 42.6074 13.2666 42.6074ZM16.6826 34.25H17.6816V41.3721L17.5957 42.5H16.6826V34.25ZM21.6079 39.5459V39.6587C21.6079 40.0812 21.5578 40.4733 21.4575 40.835C21.3573 41.193 21.2104 41.5046 21.0171 41.7695C20.8237 42.0345 20.5874 42.2404 20.3081 42.3872C20.0288 42.534 19.7083 42.6074 19.3467 42.6074C18.9779 42.6074 18.6538 42.5448 18.3745 42.4194C18.0988 42.2905 17.866 42.1061 17.6763 41.8662C17.4865 41.6263 17.3343 41.3363 17.2197 40.9961C17.1087 40.6559 17.0317 40.2728 16.9888 39.8467V39.3525C17.0317 38.9229 17.1087 38.5379 17.2197 38.1978C17.3343 37.8576 17.4865 37.5675 17.6763 37.3276C17.866 37.0841 18.0988 36.8997 18.3745 36.7744C18.6502 36.6455 18.9707 36.5811 19.3359 36.5811C19.7012 36.5811 20.0252 36.6527 20.3081 36.7959C20.591 36.9355 20.8273 37.1361 21.0171 37.3975C21.2104 37.6589 21.3573 37.9722 21.4575 38.3374C21.5578 38.6991 21.6079 39.1019 21.6079 39.5459ZM20.6089 39.6587V39.5459C20.6089 39.2559 20.582 38.9837 20.5283 38.7295C20.4746 38.4717 20.3887 38.2461 20.2705 38.0527C20.1523 37.8558 19.9966 37.7018 19.8032 37.5908C19.6099 37.4762 19.3717 37.4189 19.0889 37.4189C18.8382 37.4189 18.6198 37.4619 18.4336 37.5479C18.251 37.6338 18.0952 37.7502 17.9663 37.897C17.8374 38.0402 17.7318 38.2049 17.6494 38.3911C17.5706 38.5737 17.5116 38.7635 17.4722 38.9604V40.2549C17.5295 40.5055 17.6226 40.7472 17.7515 40.98C17.884 41.2091 18.0594 41.3971 18.2778 41.5439C18.4998 41.6908 18.7738 41.7642 19.0996 41.7642C19.3682 41.7642 19.5973 41.7104 19.7871 41.603C19.9805 41.492 20.1362 41.3398 20.2544 41.1465C20.3761 40.9531 20.4657 40.7293 20.5229 40.4751C20.5802 40.2209 20.6089 39.9487 20.6089 39.6587ZM25.1904 41.791C25.4268 41.791 25.6452 41.7427 25.8457 41.646C26.0462 41.5493 26.2109 41.4168 26.3398 41.2485C26.4688 41.0767 26.5422 40.8815 26.5601 40.6631H27.5054C27.4875 41.0068 27.3711 41.3273 27.1562 41.6245C26.945 41.9181 26.6675 42.1562 26.3237 42.3389C25.98 42.5179 25.6022 42.6074 25.1904 42.6074C24.7536 42.6074 24.3722 42.5304 24.0464 42.3765C23.7241 42.2225 23.4556 42.0112 23.2407 41.7427C23.0295 41.4741 22.8701 41.1662 22.7627 40.8188C22.6589 40.4679 22.6069 40.0973 22.6069 39.707V39.4814C22.6069 39.0911 22.6589 38.7223 22.7627 38.375C22.8701 38.0241 23.0295 37.7144 23.2407 37.4458C23.4556 37.1772 23.7241 36.966 24.0464 36.812C24.3722 36.658 24.7536 36.5811 25.1904 36.5811C25.6452 36.5811 26.0426 36.6742 26.3828 36.8604C26.723 37.043 26.9897 37.2936 27.1831 37.6123C27.38 37.9274 27.4875 38.2855 27.5054 38.6865H26.5601C26.5422 38.4466 26.4741 38.23 26.356 38.0366C26.2414 37.8433 26.0838 37.6893 25.8833 37.5747C25.6864 37.4565 25.4554 37.3975 25.1904 37.3975C24.8861 37.3975 24.63 37.4583 24.4224 37.5801C24.2183 37.6982 24.0553 37.8594 23.9336 38.0635C23.8154 38.264 23.7295 38.4878 23.6758 38.7349C23.6257 38.9784 23.6006 39.2272 23.6006 39.4814V39.707C23.6006 39.9613 23.6257 40.2119 23.6758 40.459C23.7259 40.7061 23.8101 40.9299 23.9282 41.1304C24.05 41.3309 24.2129 41.492 24.417 41.6138C24.6247 41.7319 24.8825 41.791 25.1904 41.791ZM32.0493 41.5063V38.5146C32.0493 38.2855 32.0028 38.0868 31.9097 37.9185C31.8201 37.7466 31.6841 37.6141 31.5015 37.521C31.3188 37.4279 31.0933 37.3813 30.8247 37.3813C30.5741 37.3813 30.3538 37.4243 30.1641 37.5103C29.9779 37.5962 29.8311 37.709 29.7236 37.8486C29.6198 37.9883 29.5679 38.1387 29.5679 38.2998H28.5742C28.5742 38.0921 28.6279 37.8862 28.7354 37.6821C28.8428 37.478 28.9967 37.2936 29.1973 37.1289C29.4014 36.9606 29.6449 36.8281 29.9277 36.7314C30.2142 36.6312 30.5329 36.5811 30.8838 36.5811C31.3063 36.5811 31.6787 36.6527 32.001 36.7959C32.3268 36.9391 32.5811 37.1558 32.7637 37.4458C32.9499 37.7323 33.043 38.0921 33.043 38.5254V41.2324C33.043 41.4258 33.0591 41.6317 33.0913 41.8501C33.1271 42.0685 33.179 42.2565 33.2471 42.4141V42.5H32.2104C32.1603 42.3854 32.1209 42.2332 32.0923 42.0435C32.0636 41.8501 32.0493 41.6711 32.0493 41.5063ZM32.2212 38.9766L32.2319 39.6748H31.2275C30.9447 39.6748 30.6922 39.6981 30.4702 39.7446C30.2482 39.7876 30.062 39.8538 29.9116 39.9434C29.7612 40.0329 29.6466 40.1457 29.5679 40.2817C29.4891 40.4142 29.4497 40.57 29.4497 40.749C29.4497 40.9316 29.4909 41.0981 29.5732 41.2485C29.6556 41.3989 29.7791 41.5189 29.9438 41.6084C30.1121 41.6943 30.318 41.7373 30.5615 41.7373C30.8659 41.7373 31.1344 41.6729 31.3672 41.5439C31.5999 41.415 31.7843 41.2575 31.9204 41.0713C32.0601 40.8851 32.1353 40.7043 32.146 40.5288L32.5703 41.0068C32.5452 41.1572 32.4772 41.3237 32.3662 41.5063C32.2552 41.689 32.1066 41.8644 31.9204 42.0327C31.7378 42.1974 31.5194 42.3353 31.2651 42.4463C31.0145 42.5537 30.7316 42.6074 30.4165 42.6074C30.0226 42.6074 29.6771 42.5304 29.3799 42.3765C29.0863 42.2225 28.8571 42.0166 28.6924 41.7588C28.5312 41.4974 28.4507 41.2056 28.4507 40.8833C28.4507 40.5718 28.5116 40.2979 28.6333 40.0615C28.755 39.8216 28.9305 39.6229 29.1597 39.4653C29.3888 39.3042 29.6646 39.1825 29.9868 39.1001C30.3091 39.0177 30.6689 38.9766 31.0664 38.9766H32.2212ZM35.5942 37.8433V42.5H34.5952V36.6885H35.5405L35.5942 37.8433ZM35.3901 39.374L34.9282 39.3579C34.9318 38.9604 34.9837 38.5934 35.084 38.2568C35.1842 37.9167 35.3328 37.6213 35.5298 37.3706C35.7267 37.12 35.972 36.9266 36.2656 36.7905C36.5592 36.6509 36.8994 36.5811 37.2861 36.5811C37.5583 36.5811 37.8089 36.6204 38.0381 36.6992C38.2673 36.7744 38.466 36.8944 38.6343 37.0591C38.8026 37.2238 38.9333 37.4351 39.0264 37.6929C39.1195 37.9507 39.166 38.2622 39.166 38.6274V42.5H38.1724V38.6758C38.1724 38.3714 38.1204 38.1279 38.0166 37.9453C37.9163 37.7627 37.7731 37.6302 37.5869 37.5479C37.4007 37.4619 37.1823 37.4189 36.9316 37.4189C36.638 37.4189 36.3927 37.4709 36.1958 37.5747C35.9989 37.6785 35.8413 37.8218 35.7231 38.0044C35.605 38.187 35.519 38.3965 35.4653 38.6328C35.4152 38.8656 35.3901 39.1126 35.3901 39.374ZM39.1553 38.8262L38.4893 39.0303C38.4928 38.7116 38.5448 38.4054 38.645 38.1118C38.7489 37.8182 38.8975 37.5568 39.0908 37.3276C39.2878 37.0985 39.5295 36.9176 39.8159 36.7852C40.1024 36.6491 40.43 36.5811 40.7988 36.5811C41.1104 36.5811 41.3861 36.6222 41.626 36.7046C41.8695 36.7869 42.0736 36.9141 42.2383 37.0859C42.4066 37.2542 42.5337 37.4709 42.6196 37.7358C42.7056 38.0008 42.7485 38.3159 42.7485 38.6812V42.5H41.7495V38.6704C41.7495 38.3446 41.6976 38.0921 41.5938 37.9131C41.4935 37.7305 41.3503 37.6034 41.1641 37.5317C40.9814 37.4565 40.763 37.4189 40.5088 37.4189C40.2904 37.4189 40.097 37.4565 39.9287 37.5317C39.7604 37.6069 39.619 37.7108 39.5044 37.8433C39.3898 37.9722 39.3021 38.1208 39.2412 38.2891C39.1839 38.4574 39.1553 38.6364 39.1553 38.8262Z" fill="white"/>
</svg>
