<svg width="29" height="41" viewBox="0 0 29 41" fill="none" xmlns="http://www.w3.org/2000/svg">
<path d="M14.4541 24.2588C13.1619 24.2588 11.9571 24.8629 11.1602 25.8721H11.1592C10.3657 26.8776 10.0522 28.1871 10.2871 29.4443V29.4453C10.4431 30.2794 10.8342 31.046 11.4053 31.6533L10.5811 34.2139L10.5654 34.2666C10.3819 34.9169 10.4985 35.6235 10.8945 36.1816C11.2942 36.7457 11.943 37.1019 12.6572 37.1094H16.2422C16.9581 37.1019 17.6049 36.7434 18.0039 36.1807L18.0049 36.1816C18.4018 35.6222 18.5159 34.9162 18.334 34.2686L18.3271 34.2432L18.3193 34.2178L17.5 31.6553C18.0724 31.0477 18.465 30.2808 18.6211 29.4453C18.8562 28.1884 18.5434 26.8782 17.749 25.8721H17.748C16.9511 24.863 15.7464 24.2588 14.4541 24.2588ZM1.89648 21.9697C1.8962 21.4146 2.0967 20.8905 2.44238 20.499C2.78579 20.1101 3.24358 19.8823 3.71973 19.8408L4.19336 19.8047L5.05469 19.7363C4.44556 20.0188 3.89575 20.4278 3.44141 20.9404C2.61364 21.8744 2.16052 23.0868 2.15527 24.3359V33.0742C2.15537 34.0175 2.60681 34.9215 3.39258 35.4697L3.55371 35.5742C4.44572 36.1113 5.55327 36.1112 6.44531 35.5742H6.44629C7.32995 35.0418 7.84365 34.0807 7.84375 33.0742V24.9473C8.56924 24.6874 9.16133 24.1388 9.4834 23.4316C9.90307 22.5107 9.82233 21.4275 9.26172 20.5791C8.96099 20.1238 8.54114 19.7688 8.05664 19.5488C8.60091 19.5214 9.14509 19.497 9.68848 19.4756L10.9316 19.4258L12.3447 19.4014C13.7527 19.3769 15.1558 19.3769 16.5547 19.4014L18.0029 19.4268L19.2158 19.4707C20.1605 19.5045 21.104 19.55 22.0459 19.6055L23.3232 19.6807V19.6895L24.709 19.7959L25.1816 19.8311V19.832C25.5984 19.8684 26.0011 20.0473 26.3252 20.3525L26.46 20.4912C26.8045 20.8825 27.0044 21.4061 27.0039 21.96V36.751C27.0042 37.237 26.8502 37.6998 26.5801 38.0703L26.458 38.2227C26.1138 38.6124 25.6545 38.8402 25.1768 38.8809H25.1748C18.0333 39.4933 10.8562 39.4931 3.71484 38.8809H3.71582C3.24004 38.8386 2.78219 38.6105 2.43945 38.2207V38.2197C2.09567 37.8288 1.89593 37.3058 1.89648 36.752V21.9697Z" stroke="white" stroke-width="3"/>
</svg>
