<svg width="144" height="144" viewBox="0 0 144 144" fill="none" xmlns="http://www.w3.org/2000/svg">
<ellipse cx="71.9019" cy="72" rx="71.8237" ry="72" fill="#4CBBEC"/>
<path d="M71.8936 79.0664C70.0677 79.0664 68.3486 79.8662 67.1406 81.2324L66.9053 81.5137C65.695 83.0474 65.2127 85.0518 65.5732 86.9805C65.8557 88.4918 66.6382 89.8512 67.7783 90.8311L66.0654 96.1533L66.0566 96.1797L66.0488 96.2061C65.8161 97.0307 65.9651 97.9252 66.4639 98.6299V98.6309C66.9674 99.3431 67.7806 99.7874 68.6709 99.7969H75.0996C75.9911 99.7876 76.8034 99.3421 77.3066 98.6318L77.3057 98.6309C77.8062 97.9247 77.9537 97.0306 77.7227 96.208L77.7158 96.1826L77.707 96.1572L76.0068 90.833C77.0572 89.9311 77.8045 88.7076 78.1367 87.3389L78.2139 86.9805C78.5744 85.0523 78.0932 83.0477 76.8818 81.5137C75.668 79.9767 73.8414 79.0664 71.8936 79.0664ZM57.9775 70.1494H57.9736C56.0463 70.3159 54.2627 71.2295 52.9688 72.6895C51.6765 74.1476 50.9634 76.0468 50.9551 78.0098V93.7334C50.9551 95.1406 51.6738 96.4728 52.8916 97.2061C54.1166 97.9436 55.6344 97.9435 56.8594 97.2061H56.8604C58.0767 96.4731 58.7959 95.1411 58.7959 93.7334V78.168C60.1456 77.9906 61.2912 77.1137 61.8535 75.8779C62.4383 74.5939 62.3252 73.0836 61.5459 71.9043C60.7626 70.7184 59.4074 70.0299 57.9775 70.1494ZM48.0898 73.7471C48.089 72.4612 48.5529 71.2336 49.373 70.3047C50.1909 69.3785 51.299 68.8196 52.4727 68.7188L53.3301 68.6523L54.7139 68.5439V52.915C54.7201 48.573 56.3757 44.423 59.2988 41.3711C62.1291 38.4161 65.9224 36.7239 69.8877 36.6133L70.2725 36.6074H73.4941L73.8779 36.6133C77.8448 36.7218 81.6396 38.4129 84.4717 41.3682C87.3053 44.3246 88.9485 48.3131 89.0537 52.5078L89.0586 52.915V68.5293L90.4443 68.6357L91.3076 68.7012V68.7021C92.4073 68.7981 93.4496 69.296 94.248 70.1221L94.4043 70.292C95.2219 71.2205 95.6839 72.447 95.6826 73.7305V100.352C95.6835 101.637 95.22 102.866 94.4004 103.795C93.5816 104.722 92.4708 105.281 91.2949 105.381H91.2939C78.3688 106.489 65.3781 106.489 52.4531 105.381C51.2835 105.276 50.1799 104.715 49.3662 103.789H49.3652C48.5493 102.861 48.0885 101.635 48.0898 100.353V73.7471ZM77.2217 54.4707L77.2207 54.4375C77.1376 52.5611 76.129 50.8318 74.5078 49.8896C72.88 48.9438 70.8903 48.9434 69.2627 49.8896C67.6419 50.8316 66.633 52.561 66.5508 54.4385L66.5498 54.4707V67.9502L68.0752 67.9238C70.6234 67.8795 73.1632 67.8795 75.6953 67.9238L77.2217 67.9502V54.4707ZM87.2178 52.9102C87.2127 49.154 85.7819 45.5401 83.2188 42.8643C80.6543 40.1865 77.1631 38.6655 73.5059 38.6582H70.2744C66.6161 38.6635 63.1217 40.1827 60.5547 42.8613C57.9906 45.537 56.5582 49.152 56.5537 52.9102V52.9121L56.5527 66.8115V68.4023L58.1406 68.3086C59.8523 68.2082 61.5613 68.1248 63.2676 68.0576L64.709 68.001V54.5244C64.7949 51.8596 66.2045 49.4634 68.3828 48.1816C70.5598 46.9009 73.2117 46.9007 75.3887 48.1816C77.5053 49.4271 78.8962 51.7247 79.0518 54.2979L79.0625 54.5479V67.9971L80.5088 68.0488C82.2183 68.1101 83.9247 68.1917 85.6289 68.292L87.2178 68.3857V52.9102Z" stroke="white" stroke-width="3"/>
</svg>
