<svg width="145" height="26" viewBox="0 0 145 26" fill="none" xmlns="http://www.w3.org/2000/svg">
<path d="M39.6965 23.7544C40.293 23.7544 40.679 24.0804 40.679 24.6597C40.679 25.2391 40.293 25.565 39.6965 25.565H31.1054C30.4737 25.565 30.0527 25.1666 30.0527 24.4787V2.17235C30.0527 1.48431 30.4036 1.08594 31.0352 1.08594C31.6316 1.08594 31.9824 1.48431 31.9824 2.17235V23.7544H39.6965Z" fill="white"/>
<path d="M45.25 2.93341C45.25 2.1368 45.6711 1.66602 46.408 1.66602C47.1798 1.66602 47.6008 2.1368 47.6008 2.93341C47.6008 3.69387 47.1798 4.12838 46.408 4.12838C45.6711 4.12838 45.25 3.69387 45.25 2.93341ZM47.3202 9.1618V24.769C47.3202 25.3846 47.0043 25.783 46.408 25.783C45.8465 25.783 45.5308 25.3846 45.5308 24.769V9.1618C45.5308 8.51004 45.8465 8.11167 46.408 8.11167C47.0043 8.11167 47.3202 8.51004 47.3202 9.1618Z" fill="white"/>
<path d="M69.0133 9.01663C69.0133 9.23388 68.9431 9.415 68.8378 9.63225L61.5749 25.0583C61.3644 25.4928 61.0487 25.7827 60.5574 25.7827C60.0663 25.7827 59.8206 25.4928 59.6101 25.0583L52.3122 9.59597C52.2069 9.34258 52.1719 9.16146 52.1719 9.01663C52.1719 8.5097 52.5227 8.11133 53.049 8.11133C53.5051 8.11133 53.7156 8.29244 53.9612 8.79937L60.5926 23.0668H60.6627L67.2941 8.72695C67.5046 8.29244 67.7853 8.11133 68.1713 8.11133C68.6975 8.11133 69.0133 8.47342 69.0133 9.01663Z" fill="white"/>
<path d="M73.584 2.93341C73.584 2.1368 74.0051 1.66602 74.7418 1.66602C75.5138 1.66602 75.9348 2.1368 75.9348 2.93341C75.9348 3.69387 75.5138 4.12838 74.7418 4.12838C74.0051 4.12838 73.584 3.69387 73.584 2.93341ZM75.6541 9.1618V24.769C75.6541 25.3846 75.3383 25.783 74.7418 25.783C74.1805 25.783 73.8648 25.3846 73.8648 24.769V9.1618C73.8648 8.51004 74.1805 8.11167 74.7418 8.11167C75.3383 8.11167 75.6541 8.51004 75.6541 9.1618Z" fill="white"/>
<path d="M92.6438 22.9572C91.6613 24.9488 89.6615 25.9989 86.9598 25.9989C82.9249 25.9989 80.5039 23.3917 80.5039 19.01V4.38055C80.5039 3.04088 81.2407 2.24414 82.4336 2.24414C83.6266 2.24414 84.3634 3.04088 84.3634 4.38055V8.219H90.1878C91.3807 8.219 92.1175 8.90705 92.1175 10.0659C92.1175 11.1884 91.3807 11.8765 90.1878 11.8765H84.3634V19.1187C84.3634 21.1827 85.416 22.3416 87.1353 22.3416C88.258 22.3416 89.1001 21.7983 89.6263 20.9293C89.9421 20.4224 90.4333 20.0602 91.1 20.0602C92.1175 20.0602 92.8895 20.7121 92.8895 21.907C92.8895 22.3054 92.7841 22.6675 92.6438 22.9572Z" fill="#4CBBEC"/>
<path d="M115.425 10.1388V23.6458C115.425 24.9856 114.688 25.7823 113.46 25.7823C112.303 25.7823 111.566 24.9856 111.566 23.6458V23.4648H111.496C110.197 25.0943 108.197 25.9996 105.671 25.9996C100.724 25.9996 97.4609 22.3784 97.4609 16.9104C97.4609 11.4064 100.724 7.78516 105.671 7.78516C108.197 7.78516 110.197 8.69046 111.496 10.3199H111.566V10.1388C111.566 8.83529 112.303 8.00241 113.46 8.00241C114.688 8.00241 115.425 8.83529 115.425 10.1388ZM111.566 16.9104C111.566 13.6876 109.461 11.4425 106.443 11.4425C103.461 11.4425 101.391 13.6513 101.391 16.9104C101.391 20.1333 103.461 22.3422 106.443 22.3422C109.461 22.3422 111.566 20.0971 111.566 16.9104Z" fill="#4CBBEC"/>
<path d="M123.856 2.13655V23.6462C123.856 24.986 123.154 25.7828 121.926 25.7828C120.733 25.7828 119.996 24.986 119.996 23.6462V2.13655C119.996 0.796742 120.733 0 121.926 0C123.154 0 123.856 0.796742 123.856 2.13655Z" fill="#4CBBEC"/>
<path d="M143.408 22.1616C143.794 22.6323 144.074 23.103 144.074 23.791C144.074 24.986 143.302 25.7828 142.145 25.7828C141.478 25.7828 140.916 25.4568 140.495 24.9136L135.022 18.0696L132.285 20.2423V23.6462C132.285 24.986 131.584 25.7828 130.356 25.7828C129.163 25.7828 128.426 24.986 128.426 23.6462V2.13655C128.426 0.796742 129.163 0 130.356 0C131.584 0 132.285 0.796742 132.285 2.13655V15.7883L140.495 8.69076C141.022 8.25625 141.443 8.00286 142.039 8.00286C143.162 8.00286 143.899 8.79946 143.899 9.95815C143.899 10.6101 143.688 11.117 143.127 11.5515L138.004 15.6796L143.408 22.1616Z" fill="#4CBBEC"/>
<path fill-rule="evenodd" clip-rule="evenodd" d="M10.6229 19.0582H21.2469C23.3981 19.0582 25.4819 16.8257 25.4819 14.5933V5.62553C25.4819 3.39355 23.3981 1.16016 21.2469 1.16016H4.26944C2.11831 1.16016 0 3.39355 0 5.62553V14.5933C0 16.8257 2.11831 19.0582 4.26944 19.0582V25.7928L10.6229 19.0582Z" fill="white"/>
<path fill-rule="evenodd" clip-rule="evenodd" d="M14.9731 17.1126H5.40332C3.68455 17.1126 2.01953 15.3289 2.01953 13.5452V6.38034C2.01953 4.59684 3.68455 2.8125 5.40332 2.8125H20.0493C21.768 2.8125 23.4606 4.59684 23.4606 6.38034V13.5452C23.4606 15.3289 21.768 17.1126 20.0493 17.1126V22.4935L14.9731 17.1126Z" fill="#4CBBEC"/>
</svg>
