<svg width="80" height="80" viewBox="0 0 80 80" fill="none" xmlns="http://www.w3.org/2000/svg">
<ellipse cx="39.9021" cy="40" rx="39.9021" ry="40" fill="#4CBBEC"/>
<path d="M40.0576 43.7549C38.7654 43.7549 37.5606 44.359 36.7637 45.3682H36.7627C35.9692 46.3737 35.6557 47.6832 35.8906 48.9404V48.9414C36.0466 49.7755 36.4377 50.5421 37.0088 51.1494L36.1846 53.71L36.1689 53.7627C35.9854 54.413 36.102 55.1196 36.498 55.6777C36.8977 56.2418 37.5465 56.598 38.2607 56.6055H41.8457C42.5617 56.598 43.2084 56.2395 43.6074 55.6768L43.6084 55.6777C44.0053 55.1183 44.1194 54.4123 43.9375 53.7646L43.9307 53.7393L43.9229 53.7139L43.1035 51.1514C43.6759 50.5438 44.0686 49.7769 44.2246 48.9414C44.4597 47.6845 44.1469 46.3743 43.3525 45.3682H43.3516C42.5547 44.3591 41.3499 43.7549 40.0576 43.7549ZM27.5 41.4658C27.4997 40.9107 27.7002 40.3866 28.0459 39.9951C28.3893 39.6062 28.8471 39.3784 29.3232 39.3369L29.7969 39.3008L30.6582 39.2324C30.0491 39.5149 29.4993 39.9239 29.0449 40.4365C28.2172 41.3705 27.764 42.5829 27.7588 43.832V52.5703C27.7589 53.5136 28.2103 54.4176 28.9961 54.9658L29.1572 55.0703C30.0492 55.6074 31.1568 55.6073 32.0488 55.0703H32.0498C32.9335 54.5379 33.4472 53.5768 33.4473 52.5703V44.4434C34.1728 44.1835 34.7648 43.6349 35.0869 42.9277C35.5066 42.0068 35.4259 40.9236 34.8652 40.0752C34.5645 39.6199 34.1447 39.2649 33.6602 39.0449C34.2044 39.0175 34.7486 38.9931 35.292 38.9717L36.5352 38.9219L37.9482 38.8975C39.3562 38.873 40.7593 38.873 42.1582 38.8975L43.6064 38.9229L44.8193 38.9668C45.764 39.0006 46.7075 39.0461 47.6494 39.1016L48.9268 39.1768V39.1855L50.3125 39.292L50.7852 39.3271V39.3281C51.2019 39.3645 51.6047 39.5434 51.9287 39.8486L52.0635 39.9873C52.408 40.3786 52.6079 40.9022 52.6074 41.4561V56.2471C52.6078 56.7331 52.4537 57.1959 52.1836 57.5664L52.0615 57.7188C51.7173 58.1085 51.258 58.3363 50.7803 58.377H50.7783C43.6369 58.9894 36.4598 58.9892 29.3184 58.377H29.3193C28.8435 58.3347 28.3857 58.1065 28.043 57.7168V57.7158C27.6992 57.3249 27.4994 56.8019 27.5 56.248V41.4658Z" stroke="white" stroke-width="3"/>
</svg>
