<svg width="80" height="80" viewBox="0 0 80 80" fill="none" xmlns="http://www.w3.org/2000/svg">
<ellipse cx="39.9021" cy="40" rx="39.9021" ry="40" fill="#4CBBEC"/>
<path d="M23.9702 29.1056V28.8545C23.9702 28.3424 24.1711 27.8513 24.5287 27.4892C24.8865 27.1268 25.3715 26.9234 25.8771 26.9234H27.231C27.737 26.9234 28.222 27.1268 28.5795 27.4892C28.937 27.8513 29.1379 28.3424 29.1379 28.8545V29.1056H29.8562L29.8564 23.3125H23.252V29.1056H23.9702ZM26.5508 23.5507H26.5511C26.9543 23.5524 27.3402 23.7165 27.6241 24.0064C27.9078 24.2967 28.0659 24.6892 28.0639 25.0975C28.0616 25.5059 27.899 25.8967 27.6121 26.1838C27.325 26.4705 26.9373 26.6303 26.5341 26.6274C26.1308 26.6246 25.7452 26.4593 25.4623 26.1685C25.1791 25.8774 25.0221 25.4846 25.0256 25.0763C25.0273 24.6676 25.1887 24.2763 25.4745 23.988C25.7605 23.6995 26.1476 23.5378 26.5511 23.5378L26.5508 23.5507Z" fill="white"/>
<path d="M23.9702 42.9111C23.9702 42.395 24.1711 41.9 24.5287 41.5351C24.8865 41.1699 25.3715 40.9649 25.8771 40.9649H27.231C27.737 40.9649 28.222 41.1699 28.5795 41.5351C28.937 41.9 29.1379 42.395 29.1379 42.9111V43.1642H29.8562L29.8564 37.3711H23.252V43.1642H23.9702L23.9702 42.9111ZM26.5508 37.6046H26.5511C26.9538 37.6046 27.3402 37.7679 27.6252 38.0587C27.9101 38.3494 28.0701 38.7439 28.0701 39.1551C28.0701 39.5664 27.9101 39.9605 27.6252 40.2513C27.3402 40.5421 26.9538 40.7054 26.5511 40.7054C26.1481 40.7054 25.7617 40.5421 25.4767 40.2513C25.1918 39.9605 25.0318 39.5664 25.0318 39.1551C25.0335 38.7445 25.1941 38.3509 25.4787 38.0607C25.7631 37.7702 26.1487 37.6063 26.5511 37.6045L26.5508 37.6046Z" fill="white"/>
<path d="M26.8316 39.3071C26.8316 39.6749 26.2812 39.6749 26.2812 39.3071C26.2812 38.9393 26.8316 38.9393 26.8316 39.3071Z" fill="white"/>
<path d="M26.8316 24.9596C26.8316 25.3272 26.2812 25.3272 26.2812 24.9596C26.2812 24.5916 26.8316 24.5916 26.8316 24.9596Z" fill="white"/>
<path d="M27.2612 27.9961H25.8421C25.4741 27.9961 25.1758 28.2587 25.1758 28.5831V28.8237H27.9275V28.5946C27.9311 28.4371 27.8624 28.2846 27.7371 28.1719C27.6119 28.0595 27.4403 27.9958 27.2612 27.9961V27.9961Z" fill="white"/>
<path d="M27.2613 42.3477H25.8421C25.4741 42.3477 25.1758 42.6142 25.1758 42.943V43.1752H27.9276V42.943C27.9276 42.7851 27.8574 42.6339 27.7325 42.522C27.6076 42.4104 27.438 42.3477 27.2613 42.3477Z" fill="white"/>
<path d="M26.8316 32.1352C26.8316 32.5031 26.2812 32.5031 26.2812 32.1352C26.2812 31.7674 26.8316 31.7674 26.8316 32.1352Z" fill="white"/>
<path d="M27.2613 35.168H25.8421C25.4741 35.168 25.1758 35.4384 25.1758 35.772V35.9956H27.9276V35.7599C27.9205 35.4312 27.6242 35.168 27.2613 35.168V35.168Z" fill="white"/>
<path d="M23.9702 35.9962V35.7451C23.9702 35.233 24.1711 34.7419 24.5287 34.3798C24.8865 34.0175 25.3715 33.814 25.8771 33.814H27.231C27.737 33.814 28.222 34.0175 28.5795 34.3798C28.937 34.7419 29.1379 35.233 29.1379 35.7451V35.9962H29.8562L29.8564 30.2031H23.252V35.9962H23.9702ZM26.5508 30.4735H26.5511C26.9538 30.4735 27.3402 30.6356 27.6252 30.9241C27.9101 31.2126 28.0701 31.604 28.0701 32.0118C28.0701 32.4198 27.9101 32.8112 27.6252 33.0997C27.3402 33.3882 26.9538 33.5503 26.5511 33.5503C26.1481 33.5503 25.7617 33.3882 25.4767 33.0997C25.1918 32.8112 25.0318 32.4198 25.0318 32.0118C25.0369 31.6066 25.1989 31.2195 25.483 30.9342C25.7673 30.6489 26.1507 30.4879 26.5511 30.4865L26.5508 30.4735Z" fill="white"/>
<path d="M31.2305 29.8086V43.4504H56.8228V23.3125H31.2305V29.8086ZM44.065 24.2156C45.1701 24.2156 46.2298 24.657 47.011 25.4426C47.7924 26.2285 48.2313 27.2942 48.2313 28.4055C48.2313 29.5165 47.7924 30.5823 47.011 31.3682C46.2298 32.1538 45.17 32.5955 44.065 32.5955C42.9601 32.5955 41.9003 32.1538 41.1191 31.3682C40.3377 30.5823 39.8988 29.5165 39.8988 28.4055C39.9005 27.2948 40.34 26.2299 41.1209 25.4446C41.9021 24.6592 42.9607 24.2173 44.0651 24.2155L44.065 24.2156ZM41.5459 33.1668H46.5842C48.0101 33.1668 49.3776 33.7361 50.3866 34.7494C51.3956 35.7626 51.963 37.1375 51.9648 38.5716V41.891C51.9648 42.0633 51.8968 42.2286 51.7756 42.3504C51.6545 42.4722 51.4902 42.5406 51.3189 42.5406H36.7982C36.4415 42.5406 36.1523 42.2497 36.1523 41.891V38.578C36.1523 37.1407 36.7209 35.7623 37.7328 34.747C38.7447 33.732 40.1167 33.1633 41.5458 33.1668L41.5459 33.1668Z" fill="white"/>
<path d="M56.6334 19.9961H23.1671C22.3138 19.9961 21.4953 20.3364 20.8916 20.9419C20.2882 21.5477 19.9492 22.3692 19.9492 23.2257V43.2492C19.9492 44.1057 20.2883 44.9272 20.8916 45.5331C21.4952 46.1386 22.3138 46.4789 23.1671 46.4789H56.6334C57.4867 46.4789 58.3052 46.1386 58.9089 45.5331C59.5123 44.9272 59.8513 44.1057 59.8513 43.2492V23.2257C59.8513 22.3692 59.5123 21.5478 58.9089 20.9419C58.3053 20.3363 57.4867 19.9961 56.6334 19.9961V19.9961ZM57.9206 43.2492C57.9206 43.5918 57.7849 43.9205 57.5436 44.1628C57.3023 44.405 56.9747 44.5411 56.6334 44.5411H30.665C30.5518 44.589 30.4243 44.589 30.3111 44.5411H23.1673C22.826 44.5411 22.4984 44.405 22.2571 44.1628C22.0158 43.9205 21.8801 43.5918 21.8801 43.2492V23.2257C21.8801 22.8831 22.0158 22.5544 22.2571 22.3122C22.4984 22.07 22.826 21.9339 23.1673 21.9339H56.6336C56.9749 21.9339 57.3024 22.07 57.5438 22.3122C57.7851 22.5544 57.9207 22.8831 57.9207 23.2257L57.9206 43.2492Z" fill="white"/>
<path d="M50.4941 38.3516C50.4933 37.3139 50.0847 36.3169 49.3536 35.5691C48.6228 34.8213 47.6263 34.3809 46.5727 34.3398C46.3775 35.1334 45.829 35.7982 45.0801 36.149C44.3312 36.5001 43.461 36.5001 42.7121 36.149C41.9632 35.7982 41.4147 35.1334 41.2195 34.3398C40.1636 34.3778 39.1639 34.8168 38.4303 35.5649C37.6966 36.3131 37.286 37.312 37.2852 38.3517V40.9605H50.4941V38.3516Z" fill="white"/>
<path d="M43.7593 35.1674C44.0161 35.1628 44.2669 35.0831 44.4838 34.937C44.7006 34.791 44.8754 34.5845 44.9884 34.3398H42.5117C42.6261 34.5874 42.8036 34.796 43.0242 34.9423C43.2445 35.0883 43.4991 35.1663 43.7593 35.1674L43.7593 35.1674Z" fill="white"/>
<path d="M46.9176 28.4122C46.9176 30.0118 45.6239 31.3087 44.0281 31.3087C42.4324 31.3087 41.1387 30.0118 41.1387 28.4122C41.1387 26.8122 42.4324 25.5156 44.0281 25.5156C45.6239 25.5156 46.9176 26.8122 46.9176 28.4122" fill="white"/>
<path d="M38.3867 54.8817C38.8312 55.1944 39.3656 55.339 39.9002 55.2914C40.4349 55.339 40.9693 55.1944 41.4138 54.8817V46.4727H38.3867V54.8817Z" fill="white"/>
<path d="M48.2797 56.6089C48.2843 56.4185 48.2517 56.2288 48.1839 56.0506C48.1416 55.9483 48.0735 55.8586 47.9856 55.7906C45.2636 53.6523 45.1931 53.6523 44.9249 53.6523H42.5798V54.9213C42.5798 55.8603 41.3914 56.5454 39.7553 56.5454C38.1196 56.5454 36.9308 55.8603 36.9308 54.9213V53.6523H34.5857C34.3172 53.6523 34.247 53.6523 31.5247 55.7906H31.525C31.4371 55.8586 31.369 55.9484 31.3267 56.0506C31.2588 56.2288 31.2263 56.4185 31.2309 56.6089V56.6661V58.652C31.2309 59.0066 31.3721 59.3468 31.6231 59.5986C31.8745 59.8507 32.2159 59.9938 32.5728 59.9972H46.9376C47.2968 59.9972 47.6414 59.8555 47.8955 59.6032C48.1494 59.3511 48.2921 59.0089 48.2921 58.652V56.6661C48.2921 56.6661 48.2795 56.6282 48.2795 56.6089L48.2797 56.6089ZM46.9378 58.7282H32.573C32.5308 58.7282 32.4965 58.6942 32.4965 58.652V58.0937C32.573 58.0997 32.65 58.0997 32.7265 58.0937H46.7845C46.859 58.0994 46.9337 58.0994 47.0082 58.0937V58.6837C46.9956 58.7109 46.968 58.7285 46.938 58.7282H46.9378Z" fill="white"/>
</svg>
