<svg width="36" height="36" viewBox="0 0 36 36" fill="none" xmlns="http://www.w3.org/2000/svg">
<circle cx="18" cy="18" r="18" fill="#4CBBEC"/>
<path d="M17.6326 4.582V2.11091H18.3674V4.582H17.6326ZM24.6773 6.24118L25.9362 4.10132L26.5704 4.46151L25.3115 6.60137L24.6773 6.24118ZM29.9266 11.1327L32.1072 9.89716L32.4716 10.5196L30.291 11.7552L29.9266 11.1327ZM31.9823 17.9448H34.5V18.6661H31.9823V17.9448ZM30.2966 24.8651L32.4772 26.1007L32.1129 26.7231L29.9322 25.4876L30.2966 24.8651ZM25.308 30.01L26.5673 32.1502L25.9331 32.5104L24.6738 30.3702L25.308 30.01ZM18.3674 32.0289V34.5H17.6326V32.0289H18.3674ZM11.3227 30.3821L10.0638 32.5219L9.42965 32.1617L10.6885 30.0219L11.3227 30.3821ZM6.07473 25.4782L3.89408 26.7142L3.52709 26.0917L5.70775 24.8557L6.07473 25.4782ZM4.01771 18.6661H1.5V17.9448H4.01771V18.6661ZM5.70341 11.7582L3.52275 10.5226L3.88714 9.90014L6.06779 11.1357L5.70341 11.7582ZM10.692 6.59967L9.43312 4.45939L10.0673 4.10175L11.3262 6.24203L10.692 6.59967ZM21.7484 3.88121L22.0937 2.61628L22.4476 2.7091L22.1023 3.97402L21.7484 3.88121ZM28.594 7.65299L29.5375 6.72697L29.7969 6.98157L28.8534 7.9076L28.594 7.65299ZM32.6017 14.2791L33.8905 13.9402L33.9851 14.2876L32.6963 14.6265L32.6017 14.2791ZM32.6963 21.9844L33.9851 22.3233L33.8905 22.6707L32.6017 22.3318L32.6963 21.9844ZM28.8534 28.7033L29.7969 29.6293L29.5375 29.8839L28.594 28.9579L28.8534 28.7033ZM22.1023 32.6369L22.4476 33.9018L22.0937 33.9946L21.7484 32.7297L22.1023 32.6369ZM14.2516 32.7297L13.9063 33.9946L13.5524 33.9018L13.8977 32.6369L14.2516 32.7297ZM7.40603 28.9579L6.46254 29.8839L6.20313 29.6293L7.14662 28.7033L7.40603 28.9579ZM3.39826 22.3318L2.10947 22.6707L2.01491 22.3233L3.30369 21.9844L3.39826 22.3318ZM3.30369 14.6265L2.01491 14.2876L2.10947 13.9402L3.39826 14.2791L3.30369 14.6265ZM7.14662 7.9076L6.20313 6.98157L6.46254 6.72697L7.40603 7.65299L7.14662 7.9076ZM13.8977 3.97402L13.5524 2.7091L13.9063 2.61628L14.2516 3.88121L13.8977 3.97402Z" fill="white"/>
<path d="M16.1195 19.8272L14.0316 19.335L14.7519 13.9836H21.4533V15.9792H16.8854L16.6028 17.93C16.7365 17.8704 16.9705 17.7928 17.3048 17.6973C17.6452 17.6019 18.0129 17.5542 18.408 17.5542C19.1861 17.5542 19.8456 17.6884 20.3866 17.9569C20.9275 18.2194 21.3378 18.6042 21.6174 19.1113C21.897 19.6124 22.0368 20.2179 22.0368 20.9279C22.0368 21.5483 21.8879 22.136 21.5901 22.6908C21.2983 23.2396 20.8485 23.6871 20.2407 24.0331C19.6389 24.3791 18.867 24.5521 17.9248 24.5521C17.2258 24.5521 16.5633 24.4298 15.9372 24.1852C15.3111 23.9406 14.7975 23.5886 14.3963 23.1293C13.9951 22.6699 13.7885 22.121 13.7763 21.4827H16.4113C16.4295 21.8645 16.5754 22.1389 16.8489 22.306C17.1225 22.4671 17.4811 22.5476 17.9248 22.5476C18.3078 22.5476 18.6056 22.473 18.8183 22.3239C19.0372 22.1747 19.1891 21.9779 19.2742 21.7333C19.3654 21.4827 19.411 21.2112 19.411 20.9189C19.411 20.5908 19.3472 20.3074 19.2195 20.0688C19.0979 19.8242 18.9095 19.6363 18.6542 19.505C18.3989 19.3678 18.0828 19.2992 17.706 19.2992C17.2501 19.2992 16.9036 19.3618 16.6666 19.4871C16.4356 19.6064 16.2533 19.7198 16.1195 19.8272Z" fill="white"/>
<path d="M17.0832 1.5C20.8231 1.5 24.487 2.61611 27.6532 4.71988L25.9724 7.54615C23.3096 5.77692 20.2284 4.8383 17.0832 4.8383V1.5Z" fill="white"/>
</svg>
