<svg width="27" height="48" viewBox="0 0 27 48" fill="none" xmlns="http://www.w3.org/2000/svg">
<path d="M5.57422 1.00098C5.60266 1.02018 5.64454 1.05228 5.7002 1.10254C5.83717 1.22627 6.01278 1.41657 6.2168 1.66504C6.62221 2.1588 7.10238 2.83342 7.56543 3.53711C8.02775 4.23972 8.46597 4.96117 8.78613 5.54297C8.94649 5.8344 9.07353 6.08441 9.15918 6.27637C9.2022 6.37277 9.2314 6.44744 9.24902 6.50098C9.25384 6.51561 9.25654 6.52702 9.25879 6.53516C9.25408 6.55684 9.23979 6.6035 9.19141 6.67969C9.12598 6.78268 9.02169 6.90697 8.87402 7.05078C8.57701 7.34002 8.17129 7.64957 7.73438 7.97852C7.31172 8.29672 6.85571 8.63596 6.50879 8.95703C6.33453 9.11833 6.16912 9.29156 6.04492 9.47168C5.92488 9.64578 5.8086 9.876 5.80859 10.1416C5.80859 10.5523 5.9714 11.0047 6.19824 11.4463C6.4311 11.8995 6.75934 12.3954 7.14941 12.9082C7.93045 13.9349 8.99002 15.0687 10.1211 16.1221C11.2523 17.1756 12.4688 18.1615 13.5693 18.8877C14.1193 19.2506 14.6495 19.5546 15.1318 19.7695C15.6044 19.9801 16.0739 20.1249 16.4902 20.125C16.7454 20.125 16.976 20.0273 17.1621 19.916C17.3521 19.8024 17.5363 19.65 17.71 19.4873C18.0552 19.1639 18.42 18.7375 18.7617 18.3438C19.1147 17.9371 19.4474 17.5607 19.7578 17.2842C19.9118 17.147 20.0463 17.0476 20.1611 16.9844C20.2331 16.9447 20.2871 16.9263 20.3252 16.917C20.3696 16.9349 20.43 16.9597 20.5059 16.9932C20.6847 17.0722 20.9332 17.1874 21.2295 17.3291C21.8211 17.612 22.5935 17.9953 23.3652 18.3945C24.1382 18.7944 24.9041 19.2078 25.4854 19.5498C25.777 19.7214 26.0135 19.8701 26.1787 19.9873C26.2594 20.0445 26.3146 20.0874 26.3477 20.1172C26.5767 20.6386 26.5384 21.1661 26.2842 21.7012C26.0176 22.2619 25.5164 22.8216 24.8574 23.3232C23.5313 24.3327 21.7141 25 20.3779 25L20.0029 24.9922C16.0943 24.8316 11.3016 22.2031 7.40918 18.5908C5.41143 16.7368 3.67706 14.6472 2.44531 12.5479C1.2103 10.443 0.5 8.36174 0.5 6.5166C0.500124 3.63859 2.39799 1.03869 5.57422 1.00098Z" fill="white" stroke="#4CBBEC"/>
<path d="M10.0303 34.6797V42.5H9.00977V34.6797H10.0303ZM12.5439 34.6797V35.5283H6.50146V34.6797H12.5439ZM15.4282 42.6074C15.0236 42.6074 14.6566 42.5394 14.3271 42.4033C14.0013 42.2637 13.7202 42.0685 13.4839 41.8179C13.2511 41.5672 13.0721 41.27 12.9468 40.9263C12.8215 40.5825 12.7588 40.2065 12.7588 39.7983V39.5728C12.7588 39.1001 12.8286 38.6794 12.9683 38.3105C13.1079 37.9382 13.2977 37.623 13.5376 37.3652C13.7775 37.1074 14.0496 36.9123 14.354 36.7798C14.6584 36.6473 14.9735 36.5811 15.2993 36.5811C15.7147 36.5811 16.0728 36.6527 16.3735 36.7959C16.6779 36.9391 16.9268 37.1396 17.1201 37.3975C17.3135 37.6517 17.4567 37.9525 17.5498 38.2998C17.6429 38.6436 17.6895 39.0195 17.6895 39.4277V39.8735H13.3496V39.0625H16.6958V38.9873C16.6815 38.7295 16.6278 38.4788 16.5347 38.2354C16.4451 37.9919 16.3019 37.7913 16.105 37.6338C15.908 37.4762 15.6395 37.3975 15.2993 37.3975C15.0737 37.3975 14.866 37.4458 14.6763 37.5425C14.4865 37.6356 14.3236 37.7752 14.1875 37.9614C14.0514 38.1476 13.9458 38.375 13.8706 38.6436C13.7954 38.9121 13.7578 39.2218 13.7578 39.5728V39.7983C13.7578 40.0741 13.7954 40.3337 13.8706 40.5771C13.9494 40.8171 14.0622 41.0283 14.209 41.2109C14.3594 41.3936 14.5402 41.5368 14.7515 41.6406C14.9663 41.7445 15.2098 41.7964 15.4819 41.7964C15.8328 41.7964 16.13 41.7248 16.3735 41.5815C16.617 41.4383 16.8301 41.2467 17.0127 41.0068L17.6143 41.4849C17.4889 41.6746 17.3296 41.8555 17.1362 42.0273C16.9429 42.1992 16.7048 42.3389 16.4219 42.4463C16.1426 42.5537 15.8114 42.6074 15.4282 42.6074ZM19.9292 34.25V42.5H18.9302V34.25H19.9292Z" fill="white"/>
</svg>
