<svg width="33" height="19" viewBox="0 0 33 19" fill="none" xmlns="http://www.w3.org/2000/svg">
<path d="M32.3361 9.49634C32.3231 9.15676 32.1865 8.76418 31.9589 8.51668L24.5323 0.442296C24.0291 -0.0205248 23.064 -0.211353 22.5016 0.323694C21.9476 0.850785 21.9641 1.87254 22.5158 2.40159L27.7376 8.07146H2.16598C1.39704 8.07146 0.773438 8.70954 0.773438 9.4964C0.773438 10.2832 1.39701 10.9213 2.16598 10.9213H27.7376L22.5158 16.5912C22.0405 17.0782 21.9528 18.1364 22.5016 18.6691C23.0501 19.2022 24.0495 19.0319 24.5323 18.5502L31.9589 10.4758C32.2131 10.1995 32.3367 9.87514 32.3361 9.49611V9.49634Z" fill="#4CBBEC"/>
</svg>
