<svg width="49" height="49" viewBox="0 0 49 49" fill="none" xmlns="http://www.w3.org/2000/svg">
<path fill-rule="evenodd" clip-rule="evenodd" d="M1.30096 0.501252C0.738612 0.562496 0.309786 1.1106 0.312513 1.76443V37.9453C0.312513 38.6432 0.800667 39.2089 1.40333 39.2089H8.18724L6.92597 46.986C6.83618 47.4993 7.02908 48.0236 7.41109 48.3038C7.79347 48.5841 8.28505 48.5625 8.64762 48.2492L19.1652 39.209H47.2221H47.2217C47.8244 39.209 48.3125 38.6433 48.3125 37.9454V1.7645C48.3125 1.06703 47.8243 0.501322 47.2217 0.501322H1.40339C1.36914 0.499559 1.33528 0.499559 1.30103 0.501322L1.30096 0.501252ZM7.89776 10.272C7.93162 10.2703 7.96587 10.2703 7.99973 10.272H40.7271C41.017 10.2711 41.2951 10.4042 41.5002 10.6408C41.7053 10.8778 41.8206 11.1999 41.8206 11.5352C41.8206 11.871 41.7053 12.1926 41.5002 12.4296C41.2951 12.6667 41.017 12.7993 40.7271 12.7984H7.99973C7.39743 12.831 6.88642 12.2922 6.85788 11.5942C6.82972 10.8968 7.29505 10.3045 7.89775 10.2719L7.89776 10.272ZM7.89776 16.036V16.0356C7.93162 16.0338 7.96587 16.0338 7.99973 16.0356H35.3242C35.6137 16.0351 35.8918 16.1678 36.0969 16.4048C36.302 16.6418 36.4173 16.9635 36.4173 17.2992C36.4173 17.6345 36.302 17.9561 36.0969 18.1932C35.8918 18.4302 35.6137 18.5633 35.3242 18.5624H7.99973C7.39743 18.595 6.88642 18.0557 6.85788 17.3582C6.82972 16.6607 7.29505 16.0685 7.89775 16.0355L7.89776 16.036ZM7.89776 22.0365C7.93162 22.0343 7.96587 22.0343 7.99973 22.0365H29.9202C30.5229 22.0365 31.0111 22.6018 31.0111 23.2997C31.0111 23.9972 30.5229 24.5629 29.9202 24.5629H7.99973C7.39743 24.5955 6.88603 24.0566 6.85788 23.3587C6.82972 22.6612 7.29505 22.069 7.89775 22.0364L7.89776 22.0365ZM7.88064 28.294V28.2935C7.92021 28.2913 7.96016 28.2913 7.99973 28.2935H35.5277C36.1289 28.2958 36.6155 28.8606 36.6155 29.5567C36.6155 30.2529 36.1289 30.8182 35.5277 30.8204H7.99973C7.39857 30.856 6.88564 30.322 6.85301 29.6259C6.81991 28.9297 7.27953 28.334 7.88071 28.2935L7.88064 28.294Z" fill="white"/>
</svg>
