<svg width="26" height="48" viewBox="0 0 26 48" fill="none" xmlns="http://www.w3.org/2000/svg">
<path fill-rule="evenodd" clip-rule="evenodd" d="M1.26482 0.500652C0.971933 0.53255 0.748586 0.81802 0.750007 1.15856V20.0028C0.750007 20.3663 1.00425 20.6609 1.31814 20.6609H4.85143L4.19452 24.7114C4.14775 24.9788 4.24822 25.2519 4.44718 25.3978C4.64634 25.5438 4.90237 25.5325 5.09121 25.3694L10.5691 20.6609H25.1821H25.1819C25.4958 20.6609 25.75 20.3663 25.75 20.0028V1.15859C25.75 0.795327 25.4958 0.500688 25.1819 0.500688H1.31817C1.30033 0.499771 1.2827 0.499771 1.26486 0.500688L1.26482 0.500652ZM4.70066 5.58959C4.71829 5.58867 4.73613 5.58867 4.75377 5.58959H21.7993C21.9503 5.58913 22.0951 5.65844 22.2019 5.78166C22.3088 5.90513 22.3688 6.07287 22.3688 6.24751C22.3688 6.42237 22.3088 6.58989 22.2019 6.71335C22.0951 6.83682 21.9503 6.90588 21.7993 6.90543H4.75377C4.44007 6.92241 4.17392 6.64175 4.15905 6.27825C4.14439 5.91498 4.38675 5.60653 4.70065 5.58956L4.70066 5.58959ZM4.70066 8.59167V8.59144C4.71829 8.59052 4.73613 8.59052 4.75377 8.59144H18.9852C19.136 8.59121 19.2809 8.66029 19.3877 8.78374C19.4945 8.90721 19.5546 9.07472 19.5546 9.24959C19.5546 9.42422 19.4945 9.59174 19.3877 9.7152C19.2809 9.83867 19.136 9.90796 18.9852 9.9075H4.75377C4.44007 9.92449 4.17392 9.6436 4.15905 9.28032C4.14439 8.91706 4.38675 8.60861 4.70065 8.5914L4.70066 8.59167ZM4.70066 11.7169C4.71829 11.7158 4.73613 11.7158 4.75377 11.7169H16.1707C16.4846 11.7169 16.7388 12.0114 16.7388 12.3748C16.7388 12.7381 16.4846 13.0328 16.1707 13.0328H4.75377C4.44007 13.0497 4.17371 12.7691 4.15905 12.4056C4.14439 12.0423 4.38675 11.7339 4.70065 11.7169L4.70066 11.7169ZM4.69174 14.976V14.9758C4.71235 14.9747 4.73316 14.9747 4.75377 14.9758H19.0913C19.4044 14.977 19.6578 15.2711 19.6578 15.6337C19.6578 15.9963 19.4044 16.2907 19.0913 16.2919H4.75377C4.44066 16.3104 4.17351 16.0323 4.15652 15.6697C4.13927 15.3071 4.37866 14.9969 4.69177 14.9758L4.69174 14.976Z" fill="white"/>
<path d="M6.99268 40.5234C6.99268 40.3408 6.96403 40.1797 6.90674 40.04C6.85303 39.8968 6.75635 39.7679 6.6167 39.6533C6.48063 39.5387 6.29085 39.4295 6.04736 39.3257C5.80745 39.2218 5.50309 39.1162 5.13428 39.0088C4.74756 38.8942 4.39844 38.7671 4.08691 38.6274C3.77539 38.4842 3.50863 38.3213 3.28662 38.1387C3.06462 37.9561 2.89453 37.7466 2.77637 37.5103C2.6582 37.2739 2.59912 37.0036 2.59912 36.6992C2.59912 36.3949 2.66178 36.1138 2.78711 35.856C2.91243 35.5981 3.09147 35.3743 3.32422 35.1846C3.56055 34.9912 3.84163 34.8408 4.16748 34.7334C4.49333 34.626 4.85677 34.5723 5.25781 34.5723C5.84505 34.5723 6.34277 34.6851 6.75098 34.9106C7.16276 35.1326 7.47607 35.4245 7.69092 35.7861C7.90576 36.1442 8.01318 36.5273 8.01318 36.9355H6.98193C6.98193 36.6419 6.91927 36.3823 6.79395 36.1567C6.66862 35.9276 6.47884 35.7485 6.22461 35.6196C5.97038 35.4871 5.64811 35.4209 5.25781 35.4209C4.889 35.4209 4.58464 35.4764 4.34473 35.5874C4.10482 35.6984 3.92578 35.8488 3.80762 36.0386C3.69303 36.2284 3.63574 36.445 3.63574 36.6885C3.63574 36.8532 3.66976 37.0036 3.73779 37.1396C3.80941 37.2721 3.91862 37.3957 4.06543 37.5103C4.21582 37.6248 4.4056 37.7305 4.63477 37.8271C4.86751 37.9238 5.14502 38.0169 5.46729 38.1064C5.9113 38.2318 6.29443 38.3714 6.6167 38.5254C6.93896 38.6794 7.20394 38.853 7.41162 39.0464C7.62288 39.2362 7.77865 39.4528 7.87891 39.6963C7.98275 39.9362 8.03467 40.2083 8.03467 40.5127C8.03467 40.8314 7.97021 41.1196 7.84131 41.3774C7.7124 41.6353 7.52799 41.8555 7.28809 42.0381C7.04818 42.2207 6.75993 42.3621 6.42334 42.4624C6.09033 42.5591 5.71794 42.6074 5.30615 42.6074C4.9445 42.6074 4.58822 42.5573 4.2373 42.457C3.88997 42.3568 3.57308 42.2064 3.28662 42.0059C3.00374 41.8053 2.77637 41.5583 2.60449 41.2646C2.4362 40.9674 2.35205 40.6237 2.35205 40.2334H3.3833C3.3833 40.502 3.43522 40.7329 3.53906 40.9263C3.6429 41.116 3.78434 41.2736 3.96338 41.3989C4.146 41.5243 4.35189 41.6174 4.58105 41.6782C4.8138 41.7355 5.0555 41.7642 5.30615 41.7642C5.66781 41.7642 5.97396 41.714 6.22461 41.6138C6.47526 41.5135 6.66504 41.3703 6.79395 41.1841C6.92643 40.9979 6.99268 40.7777 6.99268 40.5234ZM9.68359 34.6797H10.688L13.25 41.0552L15.8066 34.6797H16.8164L13.6367 42.5H12.8525L9.68359 34.6797ZM9.35596 34.6797H10.2422L10.3872 39.4492V42.5H9.35596V34.6797ZM16.2524 34.6797H17.1387V42.5H16.1074V39.4492L16.2524 34.6797ZM23.1274 40.5234C23.1274 40.3408 23.0988 40.1797 23.0415 40.04C22.9878 39.8968 22.8911 39.7679 22.7515 39.6533C22.6154 39.5387 22.4256 39.4295 22.1821 39.3257C21.9422 39.2218 21.6379 39.1162 21.269 39.0088C20.8823 38.8942 20.5332 38.7671 20.2217 38.6274C19.9102 38.4842 19.6434 38.3213 19.4214 38.1387C19.1994 37.9561 19.0293 37.7466 18.9111 37.5103C18.793 37.2739 18.7339 37.0036 18.7339 36.6992C18.7339 36.3949 18.7965 36.1138 18.9219 35.856C19.0472 35.5981 19.2262 35.3743 19.459 35.1846C19.6953 34.9912 19.9764 34.8408 20.3022 34.7334C20.6281 34.626 20.9915 34.5723 21.3926 34.5723C21.9798 34.5723 22.4775 34.6851 22.8857 34.9106C23.2975 35.1326 23.6108 35.4245 23.8257 35.7861C24.0405 36.1442 24.1479 36.5273 24.1479 36.9355H23.1167C23.1167 36.6419 23.054 36.3823 22.9287 36.1567C22.8034 35.9276 22.6136 35.7485 22.3594 35.6196C22.1051 35.4871 21.7829 35.4209 21.3926 35.4209C21.0238 35.4209 20.7194 35.4764 20.4795 35.5874C20.2396 35.6984 20.0605 35.8488 19.9424 36.0386C19.8278 36.2284 19.7705 36.445 19.7705 36.6885C19.7705 36.8532 19.8045 37.0036 19.8726 37.1396C19.9442 37.2721 20.0534 37.3957 20.2002 37.5103C20.3506 37.6248 20.5404 37.7305 20.7695 37.8271C21.0023 37.9238 21.2798 38.0169 21.6021 38.1064C22.0461 38.2318 22.4292 38.3714 22.7515 38.5254C23.0737 38.6794 23.3387 38.853 23.5464 39.0464C23.7576 39.2362 23.9134 39.4528 24.0137 39.6963C24.1175 39.9362 24.1694 40.2083 24.1694 40.5127C24.1694 40.8314 24.105 41.1196 23.9761 41.3774C23.8472 41.6353 23.6628 41.8555 23.4229 42.0381C23.1829 42.2207 22.8947 42.3621 22.5581 42.4624C22.2251 42.5591 21.8527 42.6074 21.4409 42.6074C21.0793 42.6074 20.723 42.5573 20.3721 42.457C20.0247 42.3568 19.7078 42.2064 19.4214 42.0059C19.1385 41.8053 18.9111 41.5583 18.7393 41.2646C18.571 40.9674 18.4868 40.6237 18.4868 40.2334H19.5181C19.5181 40.502 19.57 40.7329 19.6738 40.9263C19.7777 41.116 19.9191 41.2736 20.0981 41.3989C20.2808 41.5243 20.4867 41.6174 20.7158 41.6782C20.9486 41.7355 21.1903 41.7642 21.4409 41.7642C21.8026 41.7642 22.1087 41.714 22.3594 41.6138C22.61 41.5135 22.7998 41.3703 22.9287 41.1841C23.0612 40.9979 23.1274 40.7777 23.1274 40.5234Z" fill="white"/>
</svg>
