<svg width="50" height="46" viewBox="0 0 50 46" fill="none" xmlns="http://www.w3.org/2000/svg">
<path d="M10.8262 1.03809C10.9072 1.08628 11.0158 1.16764 11.1514 1.28906C11.4216 1.53115 11.7535 1.89125 12.1289 2.34473C12.8774 3.24888 13.759 4.47609 14.6035 5.74902C15.4471 7.02058 16.2469 8.32667 16.834 9.38477C17.128 9.91463 17.3645 10.3764 17.5264 10.7363C17.6074 10.9164 17.6663 11.0639 17.7041 11.1777C17.7461 11.3042 17.748 11.3478 17.748 11.3379C17.748 11.449 17.7016 11.612 17.5576 11.8369C17.4155 12.0588 17.2005 12.3061 16.9209 12.5762C16.3601 13.1178 15.6032 13.6913 14.8145 14.2803C14.0399 14.8586 13.2319 15.4548 12.6211 16.0156C12.3149 16.2967 12.0402 16.5854 11.8389 16.875C11.6419 17.1584 11.4796 17.4921 11.4795 17.8545C11.4795 18.4989 11.7415 19.2452 12.1436 20.0215C12.5517 20.8095 13.1326 21.6818 13.832 22.5938C15.2319 24.4189 17.1378 26.4429 19.1787 28.3281C21.2198 30.2136 23.41 31.9729 25.3838 33.2646C26.3704 33.9103 27.3119 34.4454 28.1602 34.8203C28.9989 35.191 29.7888 35.4248 30.459 35.4248C30.8177 35.4247 31.1599 35.2869 31.4658 35.1055C31.7757 34.9217 32.0876 34.6692 32.3926 34.3857C33.0001 33.8212 33.6455 33.0737 34.2715 32.3584C34.9088 31.6301 35.5291 30.9319 36.1152 30.4141C36.6938 29.9029 37.1403 29.6615 37.4619 29.6377C37.4784 29.6435 37.4997 29.6512 37.5254 29.6611C37.6168 29.6965 37.7467 29.7508 37.9121 29.8232C38.242 29.9678 38.6963 30.1769 39.2354 30.4326C40.3133 30.9439 41.7198 31.6359 43.124 32.3564C44.5293 33.0776 45.9271 33.8244 46.9912 34.4453C47.5242 34.7563 47.9646 35.0311 48.2783 35.252C48.436 35.363 48.5522 35.4539 48.6289 35.5234C48.6684 35.5592 48.6877 35.5811 48.6953 35.5898C49.1962 36.6707 49.1131 37.7636 48.6006 38.833C48.0802 39.9188 47.118 40.9718 45.8906 41.8984C43.428 43.7576 40.0459 45 37.5137 45L36.8184 44.9854C29.5803 44.6914 20.7916 39.8837 13.6992 33.3555C10.0496 29.9962 6.87573 26.2046 4.61719 22.3867C2.35531 18.5632 1.03125 14.7471 1.03125 11.3301C1.03139 5.95811 4.64232 1.01325 10.75 1C10.7599 1.00374 10.7847 1.01345 10.8262 1.03809Z" fill="white" stroke="#4CBBEC"/>
</svg>
