<svg width="34" height="33" viewBox="0 0 34 33" fill="none" xmlns="http://www.w3.org/2000/svg">
<path d="M30.8089 -0.00390625H3.79105C2.13245 -0.00390625 0.789062 1.33877 0.789062 2.99649V30.0001C0.789062 31.6578 2.13245 33.0005 3.79105 33.0005H30.8089C32.4675 33.0005 33.8109 31.6578 33.8109 30.0001V2.99649C33.8109 1.33877 32.466 -0.00390625 30.8089 -0.00390625ZM28.8411 14.209C28.646 14.227 28.4494 14.239 28.2512 14.239C26.0072 14.239 24.0349 13.0868 22.8867 11.3421C22.8867 15.9162 22.8867 21.1219 22.8867 21.2089C22.8867 25.237 19.619 28.5014 15.5904 28.5014C11.5617 28.4999 8.29403 25.234 8.29403 21.2074C8.29403 17.1794 11.5617 13.9149 15.5904 13.9149C15.7435 13.9149 15.8921 13.9284 16.0407 13.9375V17.5319C15.8906 17.5139 15.745 17.4869 15.5904 17.4869C13.534 17.4869 11.8664 19.1536 11.8664 21.2089C11.8664 23.2642 13.5325 24.9309 15.5904 24.9309C17.6482 24.9309 19.4644 23.3107 19.4644 21.2554C19.4644 21.1729 19.5004 4.49819 19.5004 4.49819H22.9362C23.2589 7.5691 25.7401 9.99343 28.8411 10.2155V14.209Z" fill="#4CBBEC"/>
</svg>
