<svg width="40" height="33" viewBox="0 0 40 33" fill="none" xmlns="http://www.w3.org/2000/svg">
<path d="M39.873 4.40044C38.4366 5.03803 36.8936 5.46708 35.274 5.66061C36.9281 4.67048 38.1964 3.10277 38.7938 1.23352C37.2478 2.15014 35.5337 2.81623 33.7085 3.17628C32.248 1.62057 30.1676 0.648438 27.8651 0.648438C23.4432 0.648438 19.8588 4.23242 19.8588 8.65051C19.8588 9.2776 19.9308 9.88968 20.0659 10.4733C13.412 10.1402 7.51312 6.95378 3.5625 2.11113C2.87505 3.29329 2.48029 4.66748 2.48029 6.13617C2.48029 8.91155 3.89272 11.3614 6.04064 12.7956C4.72877 12.7536 3.49346 12.3935 2.41424 11.7949C2.41424 11.8294 2.41424 11.8609 2.41424 11.8954C2.41424 15.7735 5.17307 19.0079 8.83699 19.7415C8.16605 19.9245 7.45758 20.022 6.7266 20.022C6.21176 20.022 5.70892 19.971 5.2211 19.8795C6.24028 23.0584 9.19723 25.3733 12.7006 25.4378C9.96124 27.5845 6.50895 28.8642 2.75647 28.8642C2.11104 28.8642 1.47312 28.8267 0.845703 28.7517C4.38955 31.0215 8.59684 32.3462 13.1193 32.3462C27.8471 32.3462 35.8984 20.1526 35.8984 9.57763C35.8984 9.23109 35.8909 8.88604 35.8759 8.5425C37.4414 7.41285 38.7998 6.00416 39.873 4.40044Z" fill="#4CBBEC"/>
</svg>
