<svg width="20" height="21" viewBox="0 0 20 21" fill="none" xmlns="http://www.w3.org/2000/svg">
<path d="M10.5 0C7.46707 0 5 2.24264 5 5C5 7.75711 7.46707 10 10.5 10C13.5329 10 16 7.75666 16 5C16 2.2434 13.5329 0 10.5 0Z" fill="#FBFBFB"/>
<path d="M20 19.7943C20 14.9451 15.5142 11 10 11C4.48585 11 0 14.9454 0 19.7943C0 19.8104 0.00472686 19.8253 0.0052521 19.8409C0.00472686 19.8573 0 19.8722 0 19.8883C0 20.502 0.527045 21 1.17647 21H18.8235C19.473 21 20 20.502 20 19.8883C20 19.8722 19.9953 19.8573 19.9947 19.8412C19.9953 19.8255 20 19.8099 20 19.7943ZM9.24504 16.093C7.5998 16.5476 6.26555 17.6672 5.67496 19.0868C5.58436 19.3059 5.36194 19.4397 5.12743 19.4397C5.05574 19.4397 4.98326 19.4275 4.91262 19.4007C4.60957 19.2886 4.46094 18.966 4.58016 18.6803C5.30258 16.9433 6.92262 15.5771 8.91421 15.0263C9.22723 14.9401 9.55313 15.1091 9.64423 15.4037C9.73562 15.6985 9.55626 16.0069 9.24507 16.093L9.24504 16.093Z" fill="#FBFBFB"/>
</svg>
