<svg width="42" height="46" viewBox="0 0 42 46" fill="none" xmlns="http://www.w3.org/2000/svg">
<path d="M29.4619 9.61719C31.119 9.61736 32.5283 11.0258 32.5283 12.8467C32.5283 14.6673 31.119 16.076 29.4619 16.0762C27.8045 16.0762 26.3945 14.6674 26.3945 12.8467C26.3945 11.0257 27.8044 9.61719 29.4619 9.61719Z" fill="white" stroke="white" stroke-width="2"/>
<path d="M39.4263 0H2.8226C1.6024 0 0.789062 0.919918 0.789062 2.3V25.3C0.789062 26.6801 1.6024 27.6 2.8226 27.6H19.0909V41.4H12.9903C11.7701 41.4 10.9567 42.3199 10.9567 43.7C10.9567 45.0801 11.7701 46 12.9903 46H29.2586C30.4788 46 31.2921 45.0801 31.2921 43.7C31.2921 42.3199 30.4788 41.4 29.2586 41.4H23.158V27.6H39.4263C40.6465 27.6 41.4598 26.6801 41.4598 25.3V2.3C41.4598 0.919918 40.6465 0 39.4263 0ZM6.88967 9.2C5.66948 9.2 4.85614 8.28008 4.85614 6.9C4.85614 5.51992 5.66948 4.6 6.88967 4.6C8.10987 4.6 8.92321 5.51992 8.92321 6.9C8.92321 8.28008 8.10987 9.2 6.88967 9.2ZM29.4619 23.46C24.988 23.46 21.3278 19.3202 21.3278 14.26C21.3278 9.19984 24.988 5.06 29.4619 5.06C33.9359 5.06 37.5961 9.19984 37.5961 14.26C37.5961 19.3198 33.9356 23.46 29.4619 23.46Z" fill="white"/>
</svg>
